<?xml version="1.0" encoding="UTF-8"?>
<!-- Generator: Adobe Illustrator 21.0.0, SVG Export Plug-In . SVG Version: 6.00 Build 0)  -->
<svg version="1.1" xmlns="http://www.w3.org/2000/svg" xmlns:xlink="http://www.w3.org/1999/xlink" x="0px" y="0px" width="620px" height="620px" viewBox="0 0 620 620" enable-background="new 0 0 620 620" xml:space="preserve">
<g id="Layer_1">
	<g>
		<g>
			<defs>
				<filter id="Adobe_OpacityMaskFilter" filterUnits="userSpaceOnUse" x="17.9" y="14.1" width="101.1" height="74.6">
					
						<feColorMatrix type="matrix" values="-1 0 0 0 1  0 -1 0 0 1  0 0 -1 0 1  0 0 0 1 0" color-interpolation-filters="sRGB" result="source"/>
					<feFlood style="flood-color:white;flood-opacity:1" result="back"/>
					<feBlend in="source" in2="back" mode="normal"/>
				</filter>
			</defs>
			<mask maskUnits="userSpaceOnUse" x="17.9" y="14.1" width="101.1" height="74.6" id="SVGID_1_">
				<g filter="url(#Adobe_OpacityMaskFilter)">
					<path fill="#FFFFFF" d="M94.2,45.8H17.4c-4.8,0-8.7,3.9-8.7,8.7V98c0,4.8,3.9,8.7,8.7,8.7h76.9c4.8,0,8.7-3.9,8.7-8.7V54.5       C102.9,49.7,99,45.8,94.2,45.8z"/>
				</g>
			</mask>
			<path mask="url(#SVGID_1_)" fill="#4CAF50" d="M112,28.7L36.5,14.3c-4.7-0.9-9.3,2.2-10.2,6.9l-0.4,2.2l92.6,17.7l0.4-2.2     C119.8,34.1,116.7,29.6,112,28.7z M18.1,64c-0.9,4.7,2.2,9.3,6.9,10.2l75.5,14.4c4.7,0.9,9.3-2.2,10.2-6.9l5.8-30.5L23.9,33.5     L18.1,64z"/>
			<path fill="#231F20" d="M90.5,48.9H13.7c-4.8,0-8.7,3.9-8.7,8.7v43.6c0,4.8,3.9,8.7,8.7,8.7h76.9c4.8,0,8.7-3.9,8.7-8.7V57.6     C99.2,52.8,95.3,48.9,90.5,48.9z M83.1,99.5c0,0.5-0.5,1-1,1h-60c-0.5,0-1-0.5-1-1v-3c0-0.5,0.5-1,1-1h60c0.5,0,1,0.5,1,1V99.5z      M83.1,91.5c0,0.5-0.5,1-1,1h-60c-0.5,0-1-0.5-1-1v-3c0-0.5,0.5-1,1-1h60c0.5,0,1,0.5,1,1V91.5z M75.6,75c-2.8,0-5.3-1.5-6.7-3.6     C67.5,73.6,65,75,62.2,75c-4.4,0-7.9-3.5-7.9-7.9s3.5-7.9,7.9-7.9c2.8,0,5.3,1.5,6.7,3.6c1.4-2.2,3.9-3.6,6.7-3.6     c4.4,0,7.9,3.5,7.9,7.9C83.6,71.5,80,75,75.6,75z"/>
		</g>
		<rect fill="none" width="124" height="124"/>
	</g>
	<g>
		<g>
			<defs>
				<filter id="Adobe_OpacityMaskFilter_1_" filterUnits="userSpaceOnUse" x="134.7" y="15.5" width="102.7" height="87.3">
					
						<feColorMatrix type="matrix" values="-1 0 0 0 1  0 -1 0 0 1  0 0 -1 0 1  0 0 0 1 0" color-interpolation-filters="sRGB" result="source"/>
					<feFlood style="flood-color:white;flood-opacity:1" result="back"/>
					<feBlend in="source" in2="back" mode="normal"/>
				</filter>
			</defs>
			<mask maskUnits="userSpaceOnUse" x="134.7" y="15.5" width="102.7" height="87.3" id="SVGID_2_">
				<g filter="url(#Adobe_OpacityMaskFilter_1_)">
					<path fill="#FFFFFF" d="M180.8,109.8v-4.3c0-0.6-0.5-1.1-1.1-1.2c-3.5-0.5-6.8-1.6-9.1-2.9l-0.8-0.5c-0.5-0.3-0.7-0.8-0.6-1.4       l2.7-10.3c0.2-0.8,1.1-1.2,1.8-0.8l1.4,0.8c1.8,1,5.5,2.7,10,2.7c1.5,0,4-0.4,4-1.7c0-0.5,0-1.7-5.4-3.5       c-5.9-2-13.8-5.7-13.8-14.7c0-6.4,4-11.4,10.5-13.7c0.5-0.2,0.9-0.6,0.9-1.2v-4.8c0-0.7,0.6-1.2,1.2-1.2h9.1       c0.7,0,1.2,0.6,1.2,1.2v3.8c0,0.6,0.5,1.1,1.1,1.2c2.7,0.4,5.1,1.1,7.3,2.1L202,60c0.5,0.3,0.8,0.9,0.7,1.4l-2.6,10       c-0.2,0.7-1,1.1-1.7,0.8l-1.9-0.8c-1.7-0.7-4.3-1.9-8.2-1.9c-0.8,0-3.3,0.1-3.3,1.3c0,0.4,0.8,1.3,6.5,3.5       c8.9,3.1,12.9,7.7,12.9,14.9c0,6.7-4.3,12-11.1,14.2c-0.5,0.2-0.9,0.6-0.9,1.2v5.2c0,0.7-0.6,1.2-1.2,1.2h-9.1       C181.4,111,180.8,110.5,180.8,109.8z"/>
				</g>
			</mask>
			<path mask="url(#SVGID_2_)" fill="#4CAF50" d="M233.6,85.2h-95.2c-2.1,0-3.7,1.7-3.7,3.7v13.9h102.7V89     C237.3,86.9,235.7,85.2,233.6,85.2z M232,82.3V50h-10.7v32.2H232V82.3z M216,82.3V50h-10.7v32.2H216V82.3z M168.3,82.3V50h-10.7     v32.2h10.7V82.3z M152.3,82.3V50h-10.7v32.2h10.7V82.3z M189.6,16.5c-2.2-1.4-5-1.4-7.2,0l-46.6,30c-0.3,0.2-0.2,0.7,0.2,0.7     h100.1c0.4,0,0.5-0.5,0.2-0.7L189.6,16.5z"/>
			<path d="M183.3,107.3v-4c0-0.7-0.5-1.2-1.2-1.2c-3.6-0.3-7-1.2-9.4-2.3c-0.5-0.3-0.8-0.9-0.7-1.4l1.4-5.4c0.2-0.8,1-1.1,1.7-0.8     c2.7,1.3,6.1,2.3,9.8,2.3c3.8,0,6.5-1.5,6.5-4.2c0-2.6-2.2-4.2-7.1-5.9c-7.2-2.4-12.1-5.8-12.1-12.3c0-5.6,3.8-10.1,10.4-11.8     c0.6-0.1,1-0.6,1-1.2v-4.2c0-0.7,0.6-1.2,1.2-1.2h4.1c0.7,0,1.2,0.6,1.2,1.2v3.5c0,0.7,0.5,1.2,1.2,1.2c3.3,0.3,5.7,0.9,7.6,1.7     c0.6,0.2,0.9,0.9,0.7,1.5l-1.3,5.2c-0.2,0.7-1,1.1-1.7,0.8c-1.8-0.8-4.6-1.7-8.4-1.7c-4.4,0-5.8,1.9-5.8,3.8     c0,2.2,2.4,3.6,8.1,5.8c8,2.8,11.2,6.5,11.2,12.6c0,5.7-3.9,10.7-11,12.3c-0.6,0.1-1,0.6-1,1.2v4.6c0,0.7-0.6,1.2-1.2,1.2h-4.1     C183.9,108.6,183.3,108,183.3,107.3z"/>
		</g>
		<rect x="124" fill="none" width="124" height="124"/>
	</g>
	<g>
		<rect x="248" fill="none" width="124" height="124"/>
		<g>
			<path fill="#43A047" d="M310,18.4c-3.5,0-3.6-4.2-7.1-4.2s-3.5,4.2-7.1,4.2c-3.7,0-6.2-4.8-7.1-4.2c-1.3,0.8,3.6,12.1,4.4,14     c2.5,5.8,4.2,8.7,3.1,12c-0.6,1.8-1.6,3-3.1,4.3c-2.4,2-8.3,5-9.3,5.6c-11.2,6.3-16.4,14.7-19.2,25c-0.9,3.1-4.9,17.6,2.9,26.3     c3.7,4.1,8.5,5.2,17,7c9.6,2.1,41.2,2.1,50.7,0c8.5-1.9,13.3-2.9,17-7c7.8-8.7,3.8-23.2,2.9-26.3c-2.9-10.2-8.1-18.6-19.2-25     c-0.9-0.5-6.9-3.6-9.3-5.6c-1.4-1.2-2.5-2.5-3.1-4.3c-1.1-3.3,0.5-6.2,3.1-12c0.8-1.9,5.7-13.2,4.4-14c-0.9-0.6-3.4,4.2-7.1,4.2     c-3.5,0-3.5-4.2-7.1-4.2C313.6,14.1,313.6,18.4,310,18.4z"/>
			<path fill="#FFFFFF" d="M307.5,96.8v-3.1c0-0.5-0.4-0.9-0.9-1c-2.8-0.2-5.5-1-7.4-1.8c-0.4-0.2-0.6-0.7-0.5-1.1l1.1-4.3     c0.2-0.6,0.8-0.9,1.4-0.6c2.1,1,4.8,1.8,7.8,1.8s5.1-1.2,5.1-3.3c0-2-1.7-3.3-5.6-4.6c-5.7-1.9-9.6-4.6-9.6-9.7     c0-4.5,3-8,8.2-9.3c0.4-0.1,0.8-0.5,0.8-1v-3.3c0-0.5,0.4-1,1-1h3.2c0.5,0,1,0.4,1,1v2.8c0,0.5,0.4,0.9,0.9,1     c2.6,0.2,4.5,0.7,6,1.3c0.5,0.2,0.7,0.7,0.6,1.2l-1,4.1c-0.1,0.6-0.8,0.9-1.3,0.7c-1.5-0.6-3.6-1.4-6.6-1.4c-3.5,0-4.6,1.5-4.6,3     c0,1.8,1.9,2.9,6.4,4.6c6.3,2.2,8.9,5.2,8.9,9.9c0,4.5-3.1,8.4-8.7,9.7c-0.5,0.1-0.8,0.5-0.8,1V97c0,0.5-0.4,1-1,1h-3.2     C307.9,97.8,307.5,97.3,307.5,96.8z"/>
			<path fill="#FDD835" d="M326.2,41.1c-0.7-1.3-2.3-1.8-3.6-1.1c-6.5,3.3-19.5,3.2-25.4-0.2c-1.3-0.7-2.9-0.3-3.6,1l0,0     c-12.9,8.2-21,20.4-21.1,31.8c0,1.5,1.2,2.7,2.6,2.7l0,0c1.4,0,2.6-1.2,2.6-2.6c0.1-7.5,4.4-15.5,11.6-22.1     c-11.1,19.9-9.4,41.7-8.4,48.7c0.2,1.3,1.3,2.3,2.6,2.3c0.1,0,0.2,0,0.4,0c1.4-0.2,2.5-1.5,2.3-3c-2.1-15.1,0.2-36.5,12.4-52.4     c3.3,1,7.3,1.6,11.3,1.6c5.5,0,11.1-1,15-3C326.4,44,326.9,42.4,326.2,41.1z"/>
		</g>
	</g>
	<g>
		<rect x="372" fill="none" width="124" height="124"/>
		<g>
			<path fill="#4FC3F7" d="M447.4,75.7c-1.9,6.6-8,11.5-15.2,11.5s-13.3-4.9-15.2-11.5c-12.1,4.9-20.5,15.3-20.5,27.5h71.3     C467.9,91,459.5,80.6,447.4,75.7z"/>
			<path fill="#01579B" d="M432.2,87.2c7.2,0,13.3-4.9,15.2-11.5c-1.4-0.6-2.9-1.1-4.4-1.5c-1.3,4.8-5.6,8.3-10.8,8.3     c-5.2,0-9.5-3.5-10.8-8.3c-1.5,0.4-3,0.9-4.4,1.5C418.9,82.3,425,87.2,432.2,87.2z"/>
			<circle fill="#43A047" cx="460.5" cy="89.6" r="23"/>
			<polygon fill="#FFFFFF" points="474.5,84.9 465.2,84.9 465.2,75.6 455.8,75.6 455.8,84.9 446.4,84.9 446.4,94.3 455.8,94.3      455.8,103.7 465.2,103.7 465.2,94.3 474.5,94.3    "/>
			<path fill="#FFB74D" d="M452.5,48.4c0-29.6-9.1-29.6-20.2-29.6c-11.2,0-20.2,0-20.2,29.6c0,11.2,9.1,20.2,20.2,20.2     C443.4,68.6,452.5,59.6,452.5,48.4z"/>
			<path fill="#FFA726" d="M432.2,68.6c-4,0-7.7-1.1-10.8-3.1v8.7c1.3,4.8,5.6,8.3,10.8,8.3c5.2,0,9.5-3.5,10.8-8.3v-8.7     C439.9,67.5,436.2,68.6,432.2,68.6z"/>
			<circle fill="#784719" cx="423.1" cy="46.3" r="2.6"/>
			<circle fill="#784719" cx="441.3" cy="46.3" r="2.6"/>
			<path fill="#FFA726" d="M456.5,44c-1-1-2.7-0.8-4.1,0.2c0,1.3,0.1,2.7,0.1,4.1c0,0.5,0,0.9-0.1,1.4c1.1,0.2,2.4-0.2,3.5-1.2     C457.3,47.1,457.6,45.1,456.5,44z"/>
			<path fill="#FFA726" d="M412,48.4c0-1.5,0-2.8,0.1-4.1c-1.4-1.1-3.1-1.2-4.1-0.2c-1.1,1.1-0.8,3.1,0.6,4.6c1,1,2.4,1.5,3.5,1.2     C412,49.3,412,48.8,412,48.4z"/>
			<path fill="#424242" d="M414.3,40.7c0,2.9-0.4,5.6-0.4,5.6c-1.3-1.7-2.7-2.8-4.3-3.4c0,0-1.8-11.6,4.3-20.9s11.6-10.4,18.3-10.5     c0,0,4.8-0.3,6.7,0.3c2,0.6,0.1,3.7,3.9,4.9c3.9,1.1,8.7,2.7,11.1,10.1s1.5,16.6,1.5,16.6c-1.9,0.6-3.3,1.6-4.3,2.9     c0,0-0.7-2.9-0.8-6c-0.2-3.1,0.1-6.3,0.1-6.3c-3.9-2.1-6.9-5.1-9.3-8.9c-9.7,4-18.7,7.1-27.3,9.5C414,34.6,414.4,37.8,414.3,40.7     z"/>
		</g>
	</g>
	<g>
		<rect x="496" fill="none" width="124" height="124"/>
		<g>
			<path fill="#616161" d="M520.3,46.2v52.2c0,5.6,4.6,10.2,10.2,10.2h55c5.6,0,10.2-4.6,10.2-10.2V46.2H520.3z"/>
			<path fill="#424242" d="M595.7,25.6c0-5.6-4.6-10.2-10.2-10.2h-55c-5.6,0-10.2,4.6-10.2,10.2v20.5h75.4V25.6z"/>
			<path fill="#FF5252" d="M585.6,60.6h-6.5c-1.6,0-3-1.3-3-3v-3.9c0-1.7,1.4-3,3-3h6.5c1.6,0,3,1.3,3,3v3.9     C588.6,59.3,587.3,60.6,585.6,60.6z"/>
			<g>
				<path fill="#E0E0E0" d="M536.8,60.6h-6.5c-1.6,0-3-1.3-3-3v-3.9c0-1.7,1.4-3,3-3h6.5c1.6,0,3,1.3,3,3v3.9      C539.8,59.3,538.5,60.6,536.8,60.6z"/>
				<path fill="#E0E0E0" d="M553.1,60.6h-6.5c-1.7,0-3-1.3-3-3v-3.9c0-1.7,1.3-3,3-3h6.5c1.7,0,3,1.3,3,3v3.9      C556.1,59.3,554.7,60.6,553.1,60.6z"/>
				<path fill="#E0E0E0" d="M569.4,60.6h-6.5c-1.7,0-3-1.3-3-3v-3.9c0-1.7,1.3-3,3-3h6.5c1.7,0,3,1.3,3,3v3.9      C572.4,59.3,571,60.6,569.4,60.6z"/>
				<path fill="#E0E0E0" d="M536.8,75h-6.5c-1.6,0-3-1.3-3-3v-3.9c0-1.7,1.4-3,3-3h6.5c1.6,0,3,1.3,3,3V72      C539.8,73.7,538.5,75,536.8,75z"/>
				<path fill="#E0E0E0" d="M553.1,75h-6.5c-1.7,0-3-1.3-3-3v-3.9c0-1.7,1.3-3,3-3h6.5c1.7,0,3,1.3,3,3V72      C556.1,73.7,554.7,75,553.1,75z"/>
				<path fill="#E0E0E0" d="M569.4,75h-6.5c-1.7,0-3-1.3-3-3v-3.9c0-1.7,1.3-3,3-3h6.5c1.7,0,3,1.3,3,3V72      C572.4,73.7,571,75,569.4,75z"/>
				<path fill="#E0E0E0" d="M536.8,89.5h-6.5c-1.6,0-3-1.3-3-3v-3.9c0-1.7,1.4-3,3-3h6.5c1.6,0,3,1.3,3,3v3.9      C539.8,88.1,538.5,89.5,536.8,89.5z"/>
				<path fill="#E0E0E0" d="M553.1,89.5h-6.5c-1.7,0-3-1.3-3-3v-3.9c0-1.7,1.3-3,3-3h6.5c1.7,0,3,1.3,3,3v3.9      C556.1,88.1,554.7,89.5,553.1,89.5z"/>
				<path fill="#E0E0E0" d="M569.4,89.5h-6.5c-1.7,0-3-1.3-3-3v-3.9c0-1.7,1.3-3,3-3h6.5c1.7,0,3,1.3,3,3v3.9      C572.4,88.1,571,89.5,569.4,89.5z"/>
				<path fill="#E0E0E0" d="M536.8,103.9h-6.5c-1.6,0-3-1.4-3-3V97c0-1.7,1.4-3,3-3h6.5c1.6,0,3,1.3,3,3v3.9      C539.8,102.6,538.5,103.9,536.8,103.9z"/>
				<path fill="#E0E0E0" d="M553.1,103.9h-6.5c-1.7,0-3-1.4-3-3V97c0-1.7,1.3-3,3-3h6.5c1.7,0,3,1.3,3,3v3.9      C556.1,102.6,554.7,103.9,553.1,103.9z"/>
				<path fill="#E0E0E0" d="M569.4,103.9h-6.5c-1.7,0-3-1.4-3-3V97c0-1.7,1.3-3,3-3h6.5c1.7,0,3,1.3,3,3v3.9      C572.4,102.6,571,103.9,569.4,103.9z"/>
			</g>
			<g>
				<path fill="#BDBDBD" d="M585.6,75h-6.5c-1.6,0-3-1.3-3-3v-3.9c0-1.7,1.4-3,3-3h6.5c1.6,0,3,1.3,3,3V72      C588.6,73.7,587.3,75,585.6,75z"/>
				<path fill="#BDBDBD" d="M585.6,89.5h-6.5c-1.6,0-3-1.3-3-3v-3.9c0-1.7,1.4-3,3-3h6.5c1.6,0,3,1.3,3,3v3.9      C588.6,88.1,587.3,89.5,585.6,89.5z"/>
				<path fill="#BDBDBD" d="M585.6,103.9h-6.5c-1.6,0-3-1.4-3-3V97c0-1.7,1.4-3,3-3h6.5c1.6,0,3,1.3,3,3v3.9      C588.6,102.6,587.3,103.9,585.6,103.9z"/>
			</g>
			<path fill="#9CCC65" d="M586.6,22.9h-57.3c-1.1,0-2,0.9-2,2v12.7c0,1.1,0.9,2,2,2h57.3c1.1,0,2-0.9,2-2V24.9     C588.6,23.8,587.7,22.9,586.6,22.9z"/>
			<g>
				<path fill="#33691E" d="M573.4,34.7h-3.2c-0.6,0-1-0.4-1-1v-3.2c0-0.6,0.4-1,1-1h3.2c0.6,0,1,0.4,1,1v3.2      C574.4,34.3,574,34.7,573.4,34.7z"/>
				<path fill="#33691E" d="M582.8,34.7h-3.2c-0.6,0-1-0.4-1-1v-3.2c0-0.6,0.4-1,1-1h3.2c0.6,0,1,0.4,1,1v3.2      C583.8,34.3,583.4,34.7,582.8,34.7z"/>
			</g>
		</g>
	</g>
	<g>
		<rect y="124" fill="none" width="124" height="124"/>
		<g>
			<path fill="#F44336" d="M108.9,156c0-5.9-4.8-10.7-10.7-10.7H25.8c-5.9,0-10.7,4.8-10.7,10.7v14.3H109L108.9,156L108.9,156z"/>
			<path fill="#CFD8DC" d="M15.1,170.3v52.9c0,5.9,4.8,10.7,10.7,10.7h72.4c5.9,0,10.7-4.8,10.7-10.7v-52.9L15.1,170.3L15.1,170.3z"/>
			<g>
				<rect x="34.9" y="179.8" fill="#8FA3AD" width="10" height="10"/>
				<rect x="49.6" y="179.8" fill="#8FA3AD" width="10" height="10"/>
				<rect x="64.4" y="179.8" fill="#8FA3AD" width="10" height="10"/>
				<rect x="79.1" y="179.8" fill="#8FA3AD" width="10" height="10"/>
				<rect x="34.9" y="194.9" fill="#8FA3AD" width="10" height="10"/>
				<rect x="49.6" y="194.9" fill="#8FA3AD" width="10" height="10"/>
				<rect x="64.4" y="194.9" fill="#8FA3AD" width="10" height="10"/>
				<rect x="79.1" y="194.9" fill="#8FA3AD" width="10" height="10"/>
				<rect x="34.9" y="209.9" fill="#8FA3AD" width="10" height="10"/>
				<rect x="49.6" y="209.9" fill="#8FA3AD" width="10" height="10"/>
				<rect x="64.4" y="209.9" fill="#8FA3AD" width="10" height="10"/>
				<rect x="79.1" y="209.9" fill="#8FA3AD" width="10" height="10"/>
			</g>
			<g>
				<circle fill="#B31A1A" cx="39.9" cy="155.3" r="7.7"/>
				<path fill="#B0BEC5" d="M39.9,160.3L39.9,160.3c-2.5,0-4.5-2-4.5-4.5v-13.1c0-2.5,2-4.5,4.5-4.5l0,0c2.5,0,4.5,2,4.5,4.5v13.1      C44.4,158.2,42.4,160.3,39.9,160.3z"/>
			</g>
			<g>
				<circle fill="#B31A1A" cx="84.1" cy="155.3" r="7.7"/>
				<path fill="#B0BEC5" d="M84.1,160.3L84.1,160.3c-2.5,0-4.5-2-4.5-4.5v-13.1c0-2.5,2-4.5,4.5-4.5l0,0c2.5,0,4.5,2,4.5,4.5v13.1      C88.7,158.2,86.6,160.3,84.1,160.3z"/>
			</g>
		</g>
	</g>
	<g>
		<rect x="124" y="124" fill="none" width="124" height="124"/>
		<g>
			<g>
				<path fill="#E69329" d="M160.6,207.2c-0.5,0-1-0.1-1.5-0.1v12.7c0,4.9,4,8.9,8.9,8.9s8.9-4,8.9-8.9c0-1.2,0-3.5,0-3.5      c0.3,4.6,4.1,8.3,8.9,8.3c4.9,0,8.9-4,8.9-8.9c0-1,0.1-2.9,0.1-2.9c1.3,3.3,4.5,5.6,8.2,5.6c4.9,0,8.9-4,8.9-8.9v-2.4      L160.6,207.2L160.6,207.2z"/>
				
					<line fill="none" stroke="#DD821F" stroke-width="0.3" stroke-linecap="round" stroke-miterlimit="10" x1="194.7" y1="212.9" x2="194.7" y2="207.2"/>
				
					<line fill="none" stroke="#DD821F" stroke-width="0.3" stroke-linecap="round" stroke-miterlimit="10" x1="176.9" y1="216.4" x2="176.9" y2="207.2"/>
			</g>
			<g>
				<path fill="#90CAF9" d="M233.7,207.2h-75.8c-3.2,0-5.8-2.6-5.8-5.8V149c0-3.2,2.6-5.8,5.8-5.8h75.8c3.2,0,5.8,2.6,5.8,5.8v52.4      C239.4,204.6,236.8,207.2,233.7,207.2z"/>
				<g>
					<path fill="#1976D2" d="M183.8,164.7H160c-0.5,0-0.9-0.4-0.9-0.9v-4.3c0-0.5,0.4-0.9,0.9-0.9h23.8c0.5,0,0.9,0.4,0.9,0.9v4.3       C184.7,164.3,184.3,164.7,183.8,164.7z"/>
					<path fill="#1976D2" d="M183.8,175.7H160c-0.5,0-0.9-0.4-0.9-0.9v-4.3c0-0.5,0.4-0.9,0.9-0.9h23.8c0.5,0,0.9,0.4,0.9,0.9v4.3       C184.7,175.3,184.3,175.7,183.8,175.7z"/>
				</g>
				<g>
					<path fill="#E3F2FD" d="M225.2,198.7h-31.5c-2.3,0-4.3-1.9-4.3-4.3v-36.7c0-2.3,1.9-4.3,4.3-4.3h31.5c2.3,0,4.3,1.9,4.3,4.3       v36.7C229.5,196.8,227.6,198.7,225.2,198.7z"/>
					<g>
						<path fill="#009688" d="M216.1,186.7c-0.8,2.9-3.5,5-6.6,5c-3.2,0-5.8-2.1-6.6-5c-5.3,2.1-9,6.7-9,12h31.2        C225.1,193.4,221.4,188.8,216.1,186.7z"/>
						<path fill="#01579B" d="M209.5,191.7c3.2,0,5.8-2.1,6.6-5c-0.6-0.2-1.3-0.5-1.9-0.6c-0.6,2.1-2.5,3.6-4.7,3.6        c-2.3,0-4.2-1.5-4.7-3.6c-0.7,0.2-1.3,0.4-1.9,0.6C203.7,189.6,206.3,191.7,209.5,191.7z"/>
						<path fill="#FFB74D" d="M218.3,174.7c0-12.9-4-12.9-8.9-12.9s-8.9,0-8.9,12.9c0,4.9,4,8.9,8.9,8.9S218.3,179.6,218.3,174.7z"/>
						<path fill="#FFA726" d="M209.5,183.6c-1.7,0-3.4-0.5-4.7-1.4v3.8c0.6,2.1,2.5,3.6,4.7,3.6c2.3,0,4.2-1.5,4.7-3.6v-3.8        C212.9,183.1,211.2,183.6,209.5,183.6z"/>
						<circle fill="#784719" cx="205.5" cy="173.8" r="1.1"/>
						<circle fill="#784719" cx="213.5" cy="173.8" r="1.1"/>
						<path fill="#FFA726" d="M220.1,172.8c-0.4-0.4-1.2-0.4-1.8,0.1c0,0.6,0,1.2,0,1.8c0,0.2,0,0.4,0,0.6c0.5,0.1,1.1-0.1,1.5-0.5        C220.5,174.2,220.6,173.3,220.1,172.8z"/>
						<path fill="#FFA726" d="M200.6,174.7c0-0.6,0-1.2,0-1.8c-0.6-0.5-1.4-0.5-1.8-0.1c-0.5,0.5-0.4,1.4,0.3,2        c0.5,0.5,1,0.6,1.5,0.5C200.7,175.1,200.6,174.9,200.6,174.7z"/>
						<path fill="#424242" d="M201.7,171.4c0,1.3-0.2,2.4-0.2,2.4c-0.6-0.8-1.2-1.2-1.9-1.5c0,0-0.8-5.1,1.9-9.2        c2.7-4.1,5.1-4.5,8-4.6c0,0,2.1-0.1,2.9,0.1c0.9,0.3,0,1.6,1.7,2.1s3.8,1.2,4.9,4.4s0.7,7.3,0.7,7.3c-0.8,0.2-1.4,0.7-1.9,1.3        c0,0-0.3-1.3-0.4-2.6c-0.1-1.3,0.1-2.7,0.1-2.7c-1.7-0.9-3-2.2-4-3.9c-4.2,1.7-8.2,3.1-11.9,4.2        C201.5,168.7,201.7,170.1,201.7,171.4z"/>
					</g>
				</g>
			</g>
			<g>
				<path fill="#FFB74D" d="M176.6,178.8c-10.7,6.6-14.5,10-18.4,12.8c-4,2.8-6,1.6-6,1.6v-42.3c-2,0.1-7.1,0.5-10.5,3.9      c-1.4,1.4-4.9,4.5-9,7.9V228h3.6c8.4,0,16.5-2.9,23-8.2c11-9,27.6-22.6,31.7-26.8C197.3,186.7,187.3,172.2,176.6,178.8z"/>
				<path fill="#FFCDD2" d="M187.9,182.1c2.8,3,3.5,6.8,0.6,9.4c-2.9,2.6-5.5,0.3-8.3-2.7s-4.6-5.7-1.7-8.3      C181.3,177.9,185.1,179.1,187.9,182.1z"/>
				<path fill="#E69329" d="M152.2,175.6l-5.5,14.7c-0.2,0.6,0.1,1.4,0.8,1.5l4.7,1.3V175.6z"/>
			</g>
		</g>
	</g>
	<g>
		<rect x="248" y="124" fill="none" width="124" height="124"/>
		<g>
			<g>
				<path fill="#64B5F6" d="M352.9,196.6h-72.1c-3.2,0-5.8-2.6-5.8-5.8V141c0-3.2,2.6-5.8,5.8-5.8h72.1c3.2,0,5.8,2.6,5.8,5.8v49.8      C358.6,194.1,356.1,196.6,352.9,196.6z"/>
				<rect x="275" y="148.9" fill="#37474F" width="83.6" height="13.9"/>
				<rect x="281.7" y="166" fill="#E3F2FD" width="70.4" height="13.9"/>
			</g>
			<g>
				<path fill="#3F51B5" d="M339.2,236.6h-72.1c-3.2,0-5.8-2.6-5.8-5.8V181c0-3.2,2.6-5.8,5.8-5.8h72.1c3.2,0,5.8,2.6,5.8,5.8v49.8      C345,234.1,342.4,236.6,339.2,236.6z"/>
				<g>
					<path fill="#FFC107" d="M334.7,205h-13.3c-1.8,0-3.3-1.5-3.3-3.3v-10.8c0-1.8,1.5-3.3,3.3-3.3h13.3c1.8,0,3.3,1.5,3.3,3.3v10.8       C338,203.5,336.5,205,334.7,205z"/>
					<path fill="#FFC107" d="M279.4,224.2h-13.1c-0.3,0-0.6-0.2-0.6-0.6V219c0-0.3,0.2-0.6,0.6-0.6h13.1c0.3,0,0.6,0.2,0.6,0.6v4.6       C280,223.9,279.7,224.2,279.4,224.2z"/>
					<path fill="#FFC107" d="M298.3,224.2h-13.1c-0.3,0-0.6-0.2-0.6-0.6V219c0-0.3,0.2-0.6,0.6-0.6h13.1c0.3,0,0.6,0.2,0.6,0.6v4.6       C298.9,223.9,298.6,224.2,298.3,224.2z"/>
					<path fill="#FFC107" d="M317.2,224.2H304c-0.3,0-0.6-0.2-0.6-0.6V219c0-0.3,0.2-0.6,0.6-0.6h13.1c0.3,0,0.6,0.2,0.6,0.6v4.6       C317.7,223.9,317.5,224.2,317.2,224.2z"/>
					<path fill="#FFC107" d="M337.4,224.2h-13.1c-0.3,0-0.6-0.2-0.6-0.6V219c0-0.3,0.2-0.6,0.6-0.6h13.1c0.3,0,0.6,0.2,0.6,0.6v4.6       C338,223.9,337.7,224.2,337.4,224.2z"/>
				</g>
			</g>
		</g>
	</g>
	<g>
		<rect x="372" y="124" fill="none" width="124" height="124"/>
		<g>
			<path fill="none" stroke="#000000" stroke-width="5" stroke-linecap="round" stroke-miterlimit="10" d="M479,187.1     c0,25.4-20.6,46.1-46.1,46.1s-46.1-20.6-46.1-46.1s20.6-46.1,46.1-46.1"/>
			<g>
				<circle cx="479" cy="187.1" r="2.1"/>
				<circle cx="478.5" cy="180.2" r="2.1"/>
				<circle cx="477.1" cy="173.7" r="2.1"/>
				<circle cx="474.7" cy="167.6" r="2.1"/>
				<circle cx="471.6" cy="162" r="2.1"/>
				<circle cx="467.7" cy="156.8" r="2.1"/>
				<circle cx="463.2" cy="152.3" r="2.1"/>
				<circle cx="458" cy="148.4" r="2.1"/>
				<circle cx="452.4" cy="145.3" r="2.1"/>
				<circle cx="446.3" cy="142.9" r="2.1"/>
				<circle cx="439.8" cy="141.5" r="2.1"/>
				<circle cx="432.9" cy="141" r="2.1"/>
			</g>
			<circle fill="#FEC601" cx="432.9" cy="187.1" r="36.2"/>
			<g>
				<path fill="#FFFFFF" d="M426.9,206.1c-0.8,0-1.5-0.3-2-0.8l-13.5-13.5c-0.5-0.5-0.8-1.3-0.8-2c0-0.8,0.3-1.5,0.8-2l6.9-6.9      c0.5-0.5,1.3-0.8,2-0.8s1.5,0.3,2,0.8l4.6,4.6l16.7-16.7c0.5-0.5,1.3-0.8,2-0.8c0.8,0,1.5,0.3,2,0.8l6.9,6.9      c1.1,1.1,1.1,2.9,0,4l-25.6,25.6C428.4,205.8,427.7,206.1,426.9,206.1z"/>
				<path fill="#FFFFFF" d="M445.6,170c0.2,0,0.4,0.1,0.6,0.2l6.9,6.9c0.3,0.3,0.3,0.9,0,1.2l-25.6,25.6c-0.2,0.2-0.4,0.2-0.6,0.2      c-0.2,0-0.4-0.1-0.6-0.2l-13.5-13.5c-0.3-0.3-0.3-0.9,0-1.2l6.9-6.9c0.2-0.2,0.4-0.2,0.6-0.2s0.4,0.1,0.6,0.2l5.1,5.1      c0.2,0.2,0.6,0.4,0.9,0.4s0.7-0.1,0.9-0.4l17.2-17.2C445.2,170.1,445.4,170,445.6,170 M445.6,166c-1.3,0-2.5,0.5-3.4,1.4      l-15.3,15.3l-3.2-3.2c-0.9-0.9-2.1-1.4-3.4-1.4c-1.3,0-2.5,0.5-3.4,1.4l-6.9,6.9c-0.9,0.9-1.4,2.1-1.4,3.4      c0,1.3,0.5,2.5,1.4,3.4l13.5,13.5c0.9,0.9,2.1,1.4,3.4,1.4c1.3,0,2.5-0.5,3.4-1.4l25.6-25.6c0.9-0.9,1.4-2.1,1.4-3.4      c0-1.3-0.5-2.5-1.4-3.4l-6.9-6.9C448.1,166.5,446.9,166,445.6,166L445.6,166z"/>
				<path fill="#00A14B" d="M445.6,170c0.2,0,0.4,0.1,0.6,0.2l6.9,6.9c0.3,0.3,0.3,0.9,0,1.2l-25.6,25.6c-0.2,0.2-0.4,0.2-0.6,0.2      c-0.2,0-0.4-0.1-0.6-0.2l-13.5-13.5c-0.3-0.3-0.3-0.9,0-1.2l6.9-6.9c0.2-0.2,0.4-0.2,0.6-0.2c0.2,0,0.4,0.1,0.6,0.2l5.1,5.1      c0.2,0.2,0.6,0.4,0.9,0.4s0.7-0.1,0.9-0.4l17.2-17.2C445.2,170.1,445.4,170,445.6,170 M445.6,168c-0.8,0-1.5,0.3-2,0.8      l-16.7,16.7l-4.6-4.6c-0.5-0.5-1.3-0.8-2-0.8s-1.5,0.3-2,0.8l-6.9,6.9c-0.5,0.5-0.8,1.3-0.8,2c0,0.8,0.3,1.5,0.8,2l13.5,13.5      c0.5,0.5,1.3,0.8,2,0.8c0.8,0,1.5-0.3,2-0.8l25.6-25.6c0.5-0.5,0.8-1.3,0.8-2c0-0.8-0.3-1.5-0.8-2l-6.9-6.9      C447.1,168.3,446.4,168,445.6,168L445.6,168z"/>
			</g>
		</g>
	</g>
	<g>
		<rect x="496" y="124" fill="none" width="124" height="124"/>
		<g>
			<g>
				<circle fill="#FEC601" cx="558" cy="186" r="48.3"/>
				<defs>
					<filter id="Adobe_OpacityMaskFilter_2_" filterUnits="userSpaceOnUse" x="516.7" y="144.7" width="82.5" height="82.5">
						<feColorMatrix type="matrix" values="1 0 0 0 0  0 1 0 0 0  0 0 1 0 0  0 0 0 1 0"/>
					</filter>
				</defs>
				<mask maskUnits="userSpaceOnUse" x="516.7" y="144.7" width="82.5" height="82.5" id="SVGID_3_">
					<g filter="url(#Adobe_OpacityMaskFilter_2_)">
						<linearGradient id="SVGID_4_" gradientUnits="userSpaceOnUse" x1="545.288" y1="222.264" x2="594.6682" y2="172.8838">
							<stop offset="0" style="stop-color:#000000"/>
							<stop offset="2.000000e-02" style="stop-color:#FFFFFF"/>
							<stop offset="0.98" style="stop-color:#FFFFFF"/>
							<stop offset="1" style="stop-color:#000000"/>
						</linearGradient>
						<path fill="url(#SVGID_4_)" d="M599.3,186c0-3.2-0.4-6.3-1.1-9.3l-9.8-9.8l-60.8,38.3l21.1,21.1c3,0.7,6.1,1.1,9.3,1.1        C580.8,227.3,599.3,208.8,599.3,186z"/>
					</g>
				</mask>
				<radialGradient id="SVGID_5_" cx="558" cy="186" r="41.2668" gradientUnits="userSpaceOnUse">
					<stop offset="0.87" style="stop-color:#080600;stop-opacity:0.13"/>
					<stop offset="0.9693" style="stop-color:#030200;stop-opacity:3.073072e-02"/>
					<stop offset="1" style="stop-color:#000000;stop-opacity:0"/>
				</radialGradient>
				<circle mask="url(#SVGID_3_)" fill="url(#SVGID_5_)" cx="558" cy="186" r="41.3"/>
			</g>
			<g>
				<path fill="#FFFFF5" d="M585.5,206h-55.1c-2,0-3.6-1.6-3.6-3.6v-32.9c0-2,1.6-3.6,3.6-3.6h55.1c2,0,3.6,1.6,3.6,3.6v32.9      C589.1,204.4,587.5,206,585.5,206z"/>
				<g>
					<path fill="#F5F3E1" d="M560.3,180.3h-27.5c-0.5,0-1-0.4-1-1v-0.8c0-0.5,0.4-1,1-1h27.5c0.5,0,1,0.4,1,1v0.8       C561.3,179.8,560.9,180.3,560.3,180.3z"/>
					<path fill="#F5F3E1" d="M560.3,185h-27.5c-0.5,0-1-0.4-1-1v-0.8c0-0.5,0.4-1,1-1h27.5c0.5,0,1,0.4,1,1v0.8       C561.3,184.6,560.9,185,560.3,185z"/>
					<path fill="#F5F3E1" d="M560.3,189.7h-27.5c-0.5,0-1-0.4-1-1V188c0-0.5,0.4-1,1-1h27.5c0.5,0,1,0.4,1,1v0.8       C561.3,189.3,560.9,189.7,560.3,189.7z"/>
					<path fill="#F5F3E1" d="M560.3,194.5h-27.5c-0.5,0-1-0.4-1-1v-0.8c0-0.5,0.4-1,1-1h27.5c0.5,0,1,0.4,1,1v0.8       C561.3,194,560.9,194.5,560.3,194.5z"/>
				</g>
				<path fill="#0068BA" d="M580.9,179.8c0-3.5-2.9-6.4-6.4-6.4c-3.5,0-6.4,2.9-6.4,6.4c0,3.5,2.9,6.4,6.4,6.4      C578.1,186.2,580.9,183.3,580.9,179.8z M574.5,186.2c-7.4,0-9.9,4.8-9.9,10.7c0,0.6,0.1,1.2,0.1,1.7h19.5      c0.1-0.6,0.1-1.1,0.1-1.7C584.4,191,581.9,186.2,574.5,186.2z"/>
			</g>
		</g>
	</g>
	<g>
		<g>
			<circle fill="#FEC601" cx="434" cy="310" r="48.3"/>
			<defs>
				<filter id="Adobe_OpacityMaskFilter_3_" filterUnits="userSpaceOnUse" x="392.7" y="268.7" width="82.5" height="82.5">
					<feColorMatrix type="matrix" values="1 0 0 0 0  0 1 0 0 0  0 0 1 0 0  0 0 0 1 0"/>
				</filter>
			</defs>
			<mask maskUnits="userSpaceOnUse" x="392.7" y="268.7" width="82.5" height="82.5" id="SVGID_6_">
				<g filter="url(#Adobe_OpacityMaskFilter_3_)">
					<linearGradient id="SVGID_7_" gradientUnits="userSpaceOnUse" x1="420.6525" y1="345.5425" x2="469.5587" y2="296.6363">
						<stop offset="0" style="stop-color:#000000"/>
						<stop offset="2.000000e-02" style="stop-color:#FFFFFF"/>
						<stop offset="0.98" style="stop-color:#FFFFFF"/>
						<stop offset="1" style="stop-color:#000000"/>
					</linearGradient>
					<path fill="url(#SVGID_7_)" d="M465.6,292.7l-63,34.8l22.9,22.9c2.8,0.6,5.6,0.9,8.5,0.9c22.8,0,41.3-18.5,41.3-41.3       c0-2.9-0.3-5.8-0.9-8.6L465.6,292.7z"/>
				</g>
			</mask>
			<radialGradient id="SVGID_8_" cx="434" cy="309.9998" r="41.2668" gradientUnits="userSpaceOnUse">
				<stop offset="0.87" style="stop-color:#080600;stop-opacity:0.13"/>
				<stop offset="0.9693" style="stop-color:#030200;stop-opacity:3.073072e-02"/>
				<stop offset="1" style="stop-color:#000000;stop-opacity:0"/>
			</radialGradient>
			<circle mask="url(#SVGID_6_)" fill="url(#SVGID_8_)" cx="434" cy="310" r="41.3"/>
		</g>
		<rect x="372" y="248" fill="none" width="124" height="124"/>
		<g>
			<path fill="#FFEFBC" d="M464.3,292.1h-60.7c-0.9,0-1.6,0.7-1.6,1.6v32.4c0,0.9,0.7,1.6,1.6,1.6h60.7c0.9,0,1.6-0.7,1.6-1.6v-32.4     C466,292.9,465.3,292.1,464.3,292.1z"/>
			<g>
				<circle fill="#869B55" cx="434.1" cy="310" r="16.3"/>
				<path fill="#FFEFBC" d="M432.6,319.9v-1.5c0-0.2-0.2-0.4-0.4-0.5c-1.3-0.1-2.6-0.5-3.5-0.9c-0.2-0.1-0.3-0.3-0.2-0.5l0.5-2.1      c0.1-0.3,0.4-0.4,0.7-0.3c1,0.5,2.3,0.9,3.7,0.9s2.4-0.6,2.4-1.6c0-1-0.8-1.6-2.7-2.2c-2.7-0.9-4.6-2.2-4.6-4.7      c0-2.2,1.4-3.8,3.9-4.5c0.2,0,0.4-0.2,0.4-0.5V300c0-0.2,0.2-0.5,0.5-0.5h1.5c0.2,0,0.5,0.2,0.5,0.5v1.3c0,0.2,0.2,0.4,0.4,0.5      c1.2,0.1,2.2,0.3,2.9,0.6c0.2,0.1,0.3,0.3,0.3,0.6l-0.5,2c0,0.3-0.4,0.4-0.6,0.3c-0.7-0.3-1.7-0.7-3.2-0.7      c-1.7,0-2.2,0.7-2.2,1.4c0,0.9,0.9,1.4,3.1,2.2c3,1.1,4.3,2.5,4.3,4.7c0,2.2-1.5,4-4.2,4.7c-0.2,0-0.4,0.2-0.4,0.5v1.7      c0,0.2-0.2,0.5-0.5,0.5h-1.5C432.8,320.3,432.6,320.1,432.6,319.9z"/>
			</g>
			<g>
				<circle fill="#74D24F" cx="411.7" cy="310" r="3"/>
				<circle fill="#74D24F" cx="456.3" cy="310" r="3"/>
				<path fill="#74D24F" d="M464.3,292.1h-60.7c-0.9,0-1.6,0.7-1.6,1.6v32.4c0,0.9,0.7,1.6,1.6,1.6h60.7c0.9,0,1.6-0.7,1.6-1.6      v-32.4C466,292.9,465.3,292.1,464.3,292.1z M455.4,322.9c0,0.3,0,0.6,0.1,0.9h-42.9c0-0.3,0.1-0.6,0.1-0.9      c0-3.2-2.6-5.7-5.7-5.7c-0.3,0-0.5,0-0.8,0.1v-14.4c0.3,0,0.5,0.1,0.8,0.1c3.2,0,5.7-2.6,5.7-5.7c0-0.3,0-0.6-0.1-0.9h42.9      c0,0.3-0.1,0.6-0.1,0.9c0,3.2,2.6,5.7,5.7,5.7c0.3,0,0.5,0,0.8-0.1v14.4c-0.3,0-0.5-0.1-0.8-0.1      C458,317.2,455.4,319.7,455.4,322.9z"/>
			</g>
			<g>
				<circle fill="#869B55" cx="406.9" cy="297.1" r="2.5"/>
				<circle fill="#869B55" cx="406.9" cy="322.9" r="2.5"/>
				<circle fill="#869B55" cx="461.1" cy="297.1" r="2.5"/>
				<circle fill="#869B55" cx="461.1" cy="322.9" r="2.5"/>
			</g>
		</g>
	</g>
	<g>
		<g>
			<circle fill="#FEC601" cx="310" cy="434" r="48.3"/>
			<defs>
				<filter id="Adobe_OpacityMaskFilter_4_" filterUnits="userSpaceOnUse" x="268.7" y="392.7" width="82.5" height="82.5">
					<feColorMatrix type="matrix" values="1 0 0 0 0  0 1 0 0 0  0 0 1 0 0  0 0 0 1 0"/>
				</filter>
			</defs>
			<mask maskUnits="userSpaceOnUse" x="268.7" y="392.7" width="82.5" height="82.5" id="SVGID_9_">
				<g filter="url(#Adobe_OpacityMaskFilter_4_)">
					<linearGradient id="SVGID_10_" gradientUnits="userSpaceOnUse" x1="298.1965" y1="469.7532" x2="345.7173" y2="422.2324">
						<stop offset="0" style="stop-color:#000000"/>
						<stop offset="2.000000e-02" style="stop-color:#FFFFFF"/>
						<stop offset="0.98" style="stop-color:#FFFFFF"/>
						<stop offset="1" style="stop-color:#000000"/>
					</linearGradient>
					<path fill="url(#SVGID_10_)" d="M350.7,427.2L328.5,405l-37.2,57.8l11.8,11.8c2.2,0.4,4.5,0.6,6.9,0.6       c22.8,0,41.3-18.5,41.3-41.3C351.3,431.7,351.1,429.4,350.7,427.2z"/>
				</g>
			</mask>
			<radialGradient id="SVGID_11_" cx="310" cy="434" r="41.2668" gradientUnits="userSpaceOnUse">
				<stop offset="0.87" style="stop-color:#080600;stop-opacity:0.13"/>
				<stop offset="0.9693" style="stop-color:#030200;stop-opacity:3.073072e-02"/>
				<stop offset="1" style="stop-color:#000000;stop-opacity:0"/>
			</radialGradient>
			<circle mask="url(#SVGID_9_)" fill="url(#SVGID_11_)" cx="310" cy="434" r="41.3"/>
		</g>
		<rect x="248" y="372" fill="none" width="124" height="124"/>
		<g>
			<path fill="#5C546A" d="M329,406.1c0-0.9-0.7-1.6-1.6-1.6h-34.9c-0.9,0-1.6,0.7-1.6,1.6v20.4h38V406.1z"/>
			<rect x="295.3" y="409.9" fill="#00E68C" width="29.5" height="11.3"/>
			<path fill="#8B8996" d="M291,426.6v35.3c0,0.9,0.7,1.6,1.6,1.6h34.9c0.9,0,1.6-0.7,1.6-1.6v-35.3H291z"/>
			<g>
				<rect x="311.4" y="413" fill="#5C546A" width="1.7" height="5.8"/>
				<rect x="315.4" y="413" fill="#5C546A" width="1.7" height="5.8"/>
				<rect x="319.4" y="413" fill="#5C546A" width="1.7" height="5.8"/>
			</g>
			<g>
				<path fill="#5C546A" d="M303.3,439.3h-5.8c-0.6,0-1-0.4-1-1v-5.8c0-0.6,0.4-1,1-1h5.8c0.6,0,1,0.4,1,1v5.8      C304.3,438.8,303.9,439.3,303.3,439.3z"/>
				<path fill="#5C546A" d="M312.9,439.3h-5.8c-0.6,0-1-0.4-1-1v-5.8c0-0.6,0.4-1,1-1h5.8c0.6,0,1,0.4,1,1v5.8      C313.9,438.8,313.5,439.3,312.9,439.3z"/>
				<path fill="#5C546A" d="M322.5,439.3h-5.8c-0.6,0-1-0.4-1-1v-5.8c0-0.6,0.4-1,1-1h5.8c0.6,0,1,0.4,1,1v5.8      C323.5,438.8,323,439.3,322.5,439.3z"/>
				<path fill="#5C546A" d="M303.3,448.9h-5.8c-0.6,0-1-0.4-1-1v-5.8c0-0.6,0.4-1,1-1h5.8c0.6,0,1,0.4,1,1v5.8      C304.3,448.4,303.9,448.9,303.3,448.9z"/>
				<path fill="#5C546A" d="M312.9,448.9h-5.8c-0.6,0-1-0.4-1-1v-5.8c0-0.6,0.4-1,1-1h5.8c0.6,0,1,0.4,1,1v5.8      C313.9,448.4,313.5,448.9,312.9,448.9z"/>
				<path fill="#5C546A" d="M322.5,448.9h-5.8c-0.6,0-1-0.4-1-1v-5.8c0-0.6,0.4-1,1-1h5.8c0.6,0,1,0.4,1,1v5.8      C323.5,448.4,323,448.9,322.5,448.9z"/>
				<path fill="#5C546A" d="M303.3,458.5h-5.8c-0.6,0-1-0.4-1-1v-5.8c0-0.6,0.4-1,1-1h5.8c0.6,0,1,0.4,1,1v5.8      C304.3,458,303.9,458.5,303.3,458.5z"/>
				<path fill="#5C546A" d="M312.9,458.5h-5.8c-0.6,0-1-0.4-1-1v-5.8c0-0.6,0.4-1,1-1h5.8c0.6,0,1,0.4,1,1v5.8      C313.9,458,313.5,458.5,312.9,458.5z"/>
				<path fill="#5C546A" d="M322.5,458.5h-5.8c-0.6,0-1-0.4-1-1v-5.8c0-0.6,0.4-1,1-1h5.8c0.6,0,1,0.4,1,1v5.8      C323.5,458,323,458.5,322.5,458.5z"/>
			</g>
		</g>
	</g>
	<g>
		<g>
			<circle fill="#FEC601" cx="558" cy="310" r="48.3"/>
			<defs>
				<filter id="Adobe_OpacityMaskFilter_5_" filterUnits="userSpaceOnUse" x="516.7" y="268.7" width="82.5" height="82.5">
					<feColorMatrix type="matrix" values="1 0 0 0 0  0 1 0 0 0  0 0 1 0 0  0 0 0 1 0"/>
				</filter>
			</defs>
			<mask maskUnits="userSpaceOnUse" x="516.7" y="268.7" width="82.5" height="82.5" id="SVGID_12_">
				<g filter="url(#Adobe_OpacityMaskFilter_5_)">
					<linearGradient id="SVGID_13_" gradientUnits="userSpaceOnUse" x1="546.5757" y1="347.4658" x2="594.2841" y2="299.7574">
						<stop offset="0" style="stop-color:#000000"/>
						<stop offset="2.000000e-02" style="stop-color:#FFFFFF"/>
						<stop offset="0.98" style="stop-color:#FFFFFF"/>
						<stop offset="1" style="stop-color:#000000"/>
					</linearGradient>
					<path fill="url(#SVGID_13_)" d="M578.1,283.6l-42.7,52.8l14,14c2.8,0.6,5.6,0.9,8.5,0.9c22.8,0,41.3-18.5,41.3-41.3       c0-1.9-0.2-3.8-0.4-5.7L578.1,283.6z"/>
				</g>
			</mask>
			<radialGradient id="SVGID_14_" cx="558" cy="309.9998" r="41.2668" gradientUnits="userSpaceOnUse">
				<stop offset="0.87" style="stop-color:#080600;stop-opacity:0.13"/>
				<stop offset="0.9693" style="stop-color:#030200;stop-opacity:3.073072e-02"/>
				<stop offset="1" style="stop-color:#000000;stop-opacity:0"/>
			</radialGradient>
			<circle mask="url(#SVGID_12_)" fill="url(#SVGID_14_)" cx="558" cy="310" r="41.3"/>
		</g>
		<rect x="496" y="248" fill="none" width="124" height="124"/>
		<g>
			<g>
				<path opacity="5.000000e-02" d="M586.7,329.2c0,1-1.8,5.5-2.4,7.3c-0.1,0.2-0.4,0.2-0.5,0c-0.7-1.8-2.4-6.4-2.4-7.3v-26.4      c0-1.5,1.2-2.7,2.7-2.7h0c1.5,0,2.7,1.2,2.7,2.7V329.2z"/>
				<g>
					<path fill="#8B8996" d="M585.8,329c0,1-1.8,5.7-2.5,7.5c-0.1,0.3-0.5,0.3-0.6,0c-0.7-1.8-2.5-6.5-2.5-7.5v-27.1       c0-1.5,1.2-2.8,2.8-2.8l0,0c1.5,0,2.8,1.2,2.8,2.8V329z"/>
					<linearGradient id="SVGID_15_" gradientUnits="userSpaceOnUse" x1="580.2589" y1="315.2154" x2="585.8216" y2="315.2154">
						<stop offset="0.47" style="stop-color:#FFB100"/>
						<stop offset="0.53" style="stop-color:#FFD400"/>
					</linearGradient>
					<path fill="url(#SVGID_15_)" d="M580.4,301.2c-0.1,0.2-0.1,0.5-0.1,0.7V329c0,0.1,0,0.1,0,0.2c0.9,0.1,1.8,0.2,2.8,0.2       s1.9-0.1,2.8-0.2c0-0.1,0-0.1,0-0.2v-27.1c0-0.2,0-0.5-0.1-0.7c-0.9-0.1-1.8-0.2-2.7-0.2S581.2,301.1,580.4,301.2z"/>
					<path fill="#4B4877" d="M583,333.8c-0.4,0-0.8,0-1.3,0.1c0.4,1,0.7,2,1,2.6c0.1,0.3,0.5,0.3,0.6,0c0.2-0.6,0.6-1.6,1-2.6       C583.9,333.9,583.5,333.8,583,333.8z"/>
				</g>
			</g>
			<g>
				<path fill="#B9BBC1" d="M577.4,333.4h-37.9c-0.5,0-1-0.5-1-1v-48.1c0-0.5,0.5-1,1-1h37.9c0.6,0,1,0.5,1,1v48.1      C578.4,333,577.9,333.4,577.4,333.4z"/>
				<path fill="#D8DCE1" d="M574.1,336.7h-37.9c-0.5,0-1-0.5-1-1v-48.1c0-0.5,0.5-1,1-1h37.9c0.6,0,1,0.5,1,1v48.1      C575.1,336.2,574.7,336.7,574.1,336.7z"/>
				<g>
					<path fill="#51485F" d="M569.1,295.7h-27.8c-0.1,0-0.2-0.1-0.2-0.2v-1.1c0-0.1,0.1-0.2,0.2-0.2h27.8c0.1,0,0.2,0.1,0.2,0.2v1.1       C569.3,295.6,569.2,295.7,569.1,295.7z"/>
					<path fill="#4C425B" d="M549,299.1h-7.7c-0.1,0-0.2-0.1-0.2-0.2v-1.1c0-0.1,0.1-0.2,0.2-0.2h7.7c0.1,0,0.2,0.1,0.2,0.2v1.1       C549.2,299.1,549.1,299.1,549,299.1z"/>
					<path fill="#4C425B" d="M569.1,299.1h-17.2c-0.1,0-0.2-0.1-0.2-0.2v-1.1c0-0.1,0.1-0.2,0.2-0.2h17.2c0.1,0,0.2,0.1,0.2,0.2v1.1       C569.3,299.1,569.2,299.1,569.1,299.1z"/>
					<path fill="#84818F" d="M562.4,302.5h-21.1c-0.1,0-0.2-0.1-0.2-0.2v-1.1c0-0.1,0.1-0.2,0.2-0.2h21.1c0.1,0,0.2,0.1,0.2,0.2v1.1       C562.6,302.5,562.5,302.5,562.4,302.5z"/>
					<path fill="#84818F" d="M569.1,302.5h-4c-0.1,0-0.2-0.1-0.2-0.2v-1.1c0-0.1,0.1-0.2,0.2-0.2h4c0.1,0,0.2,0.1,0.2,0.2v1.1       C569.3,302.5,569.2,302.5,569.1,302.5z"/>
					<path fill="#8A8795" d="M569.1,306h-27.8c-0.1,0-0.2-0.1-0.2-0.2v-1.1c0-0.1,0.1-0.2,0.2-0.2h27.8c0.1,0,0.2,0.1,0.2,0.2v1.1       C569.3,305.9,569.2,306,569.1,306z"/>
					<path fill="#9695A1" d="M553.3,309.4h-12c-0.1,0-0.2-0.1-0.2-0.2v-1.1c0-0.1,0.1-0.2,0.2-0.2h12c0.1,0,0.2,0.1,0.2,0.2v1.1       C553.5,309.3,553.4,309.4,553.3,309.4z"/>
					<path fill="#9695A1" d="M569.1,309.4h-13.4c-0.1,0-0.2-0.1-0.2-0.2v-1.1c0-0.1,0.1-0.2,0.2-0.2h13.4c0.1,0,0.2,0.1,0.2,0.2v1.1       C569.3,309.3,569.2,309.4,569.1,309.4z"/>
					<path fill="#878592" d="M559.9,312.8h-18.6c-0.1,0-0.2-0.1-0.2-0.2v-1.1c0-0.1,0.1-0.2,0.2-0.2h18.6c0.1,0,0.2,0.1,0.2,0.2v1.1       C560.1,312.7,560,312.8,559.9,312.8z"/>
					<path fill="#878592" d="M569.1,312.8h-6.9c-0.1,0-0.2-0.1-0.2-0.2v-1.1c0-0.1,0.1-0.2,0.2-0.2h6.9c0.1,0,0.2,0.1,0.2,0.2v1.1       C569.3,312.7,569.2,312.8,569.1,312.8z"/>
					<path fill="#82808D" d="M569.1,316.2h-27.8c-0.1,0-0.2-0.1-0.2-0.2v-1.1c0-0.1,0.1-0.2,0.2-0.2h27.8c0.1,0,0.2,0.1,0.2,0.2v1.1       C569.3,316.1,569.2,316.2,569.1,316.2z"/>
					<path fill="#83808E" d="M548.8,319.6h-7.5c-0.1,0-0.2-0.1-0.2-0.2v-1.1c0-0.1,0.1-0.2,0.2-0.2h7.5c0.1,0,0.2,0.1,0.2,0.2v1.1       C549,319.5,548.9,319.6,548.8,319.6z"/>
					<path fill="#B6B7BE" d="M569.1,319.6h-17.6c-0.1,0-0.2-0.1-0.2-0.2v-1.1c0-0.1,0.1-0.2,0.2-0.2h17.6c0.1,0,0.2,0.1,0.2,0.2v1.1       C569.3,319.5,569.2,319.6,569.1,319.6z"/>
					<path fill="#B8BAC0" d="M562.4,323h-21.1c-0.1,0-0.2-0.1-0.2-0.2v-1.1c0-0.1,0.1-0.2,0.2-0.2h21.1c0.1,0,0.2,0.1,0.2,0.2v1.1       C562.6,322.9,562.5,323,562.4,323z"/>
					<path fill="#B8BAC0" d="M569.1,323h-4c-0.1,0-0.2-0.1-0.2-0.2v-1.1c0-0.1,0.1-0.2,0.2-0.2h4c0.1,0,0.2,0.1,0.2,0.2v1.1       C569.3,322.9,569.2,323,569.1,323z"/>
					<path fill="#BCBFC5" d="M569.1,326.4h-27.8c-0.1,0-0.2-0.1-0.2-0.2v-1.1c0-0.1,0.1-0.2,0.2-0.2h27.8c0.1,0,0.2,0.1,0.2,0.2v1.1       C569.3,326.3,569.2,326.4,569.1,326.4z"/>
					<path fill="#B8BAC0" d="M569.1,329.8h-27.8c-0.1,0-0.2-0.1-0.2-0.2v-1.1c0-0.1,0.1-0.2,0.2-0.2h27.8c0.1,0,0.2,0.1,0.2,0.2v1.1       C569.3,329.7,569.2,329.8,569.1,329.8z"/>
				</g>
			</g>
		</g>
	</g>
	<g>
		<rect y="248" fill="none" width="124" height="124"/>
		<g>
			<g>
				<circle fill="#F00822" cx="62" cy="310" r="48.3"/>
				<defs>
					<filter id="Adobe_OpacityMaskFilter_6_" filterUnits="userSpaceOnUse" x="20.7" y="268.7" width="82.5" height="82.5">
						<feColorMatrix type="matrix" values="1 0 0 0 0  0 1 0 0 0  0 0 1 0 0  0 0 0 1 0"/>
					</filter>
				</defs>
				<mask maskUnits="userSpaceOnUse" x="20.7" y="268.7" width="82.5" height="82.5" id="SVGID_16_">
					<g filter="url(#Adobe_OpacityMaskFilter_6_)">
						<linearGradient id="SVGID_17_" gradientUnits="userSpaceOnUse" x1="47.3408" y1="344.8352" x2="94.514" y2="297.662">
							<stop offset="0" style="stop-color:#000000"/>
							<stop offset="2.000000e-02" style="stop-color:#FFFFFF"/>
							<stop offset="0.98" style="stop-color:#FFFFFF"/>
							<stop offset="1" style="stop-color:#000000"/>
						</linearGradient>
						<path fill="url(#SVGID_17_)" d="M75.6,278.4l-38,56.6l15.1,15.1c3,0.7,6.1,1.1,9.3,1.1c22.8,0,41.3-18.5,41.3-41.3        c0-1.4-0.1-2.7-0.2-4.1L75.6,278.4z"/>
					</g>
				</mask>
				<radialGradient id="SVGID_18_" cx="62.0004" cy="309.9998" r="41.2672" gradientUnits="userSpaceOnUse">
					<stop offset="0.87" style="stop-color:#080600;stop-opacity:0.13"/>
					<stop offset="0.9693" style="stop-color:#030200;stop-opacity:3.073072e-02"/>
					<stop offset="1" style="stop-color:#000000;stop-opacity:0"/>
				</radialGradient>
				<path mask="url(#SVGID_16_)" fill="url(#SVGID_18_)" d="M103.3,310c0.1,22.8-18.5,41.3-41.3,41.3S20.7,332.8,20.7,310      c0-22.8,18.5-41.2,41.3-41.3C84.7,268.6,103.1,287,103.3,310z"/>
			</g>
			<path fill="#1C5A81" d="M86.1,322.9c0,2.3,0,11.7,0,11.7H62H37.9c0,0,0-9.4,0-11.7s0.7-4.7,4-7.5c3.2-2.9,8.1-3.4,8.1-3.4h0     c0,0,3,3.7,5,6.5c2,2.7,4.8,6.6,4.8,6.6l0.6-2.8c0,0-1.1-0.5-1-2.5s2.5-2.3,2.5-2.3H62c0,0,2.4,0.3,2.5,2.3c0.1,1.9-1,2.5-1,2.5     l0.6,2.8c0,0,2.8-3.8,4.8-6.6c2-2.7,5-6.5,5-6.5H74c0,0,4.9,0.5,8.1,3.4C85.4,318.3,86.1,320.6,86.1,322.9z"/>
			<path fill="#545466" d="M75.3,278.7c0.9,2.6-0.1,9.9-0.3,15.4c-1.2-1.4-1.9-2.8-2.3-3.7c-0.7-1.6-1.3-0.6-2.4,0s-4.1,0.9-8.6,0.3     s-6.3-2.8-8-2.7c-1.4,0.1-2.8,1.9-4.7,7c-0.1-8.9-5.5-16.8,13-18.4c3.4-0.3,6.1,0.7,8.5,0.9C72.9,277.8,74.9,277.5,75.3,278.7z"/>
			<g>
				<path fill="#A1E1F1" d="M72.2,310.4c0.9,0.7,1.6,1.6,1.6,1.6s-3,3.7-5,6.5c-2,2.7-4.8,6.6-4.8,6.6l-0.6-2.8c0,0,1.1-0.5,1-2.5      c0-1.9-2.5-2.3-2.5-2.3s3.9-3.3,5-4.2c1-0.9,3.4-4.1,3.4-4.1s0,0,0.1,0C70.7,309.4,71.5,309.8,72.2,310.4z"/>
				<path fill="#A1E1F1" d="M61.9,317.5c0,0-2.4,0.3-2.5,2.3s1,2.5,1,2.5l-0.6,2.8c0,0-2.8-3.8-4.8-6.6c-2-2.7-5-6.5-5-6.5      s0.8-0.9,1.6-1.6c0.9-0.7,1.8-1.2,1.8-1.2s2.4,3.2,3.4,4.1C58,314.3,61.9,317.5,61.9,317.5z"/>
			</g>
			<g>
				<path fill="#FFD59E" d="M75.5,296.3c1.2,0.4,1.6,2.2,1,4.1c-0.6,1.8-2,2.9-3.1,2.7c0.1-0.3,0.2-0.5,0.3-0.8      c0.2-0.5,0.4-1.1,0.5-1.6c0.1-0.3,0.2-0.7,0.3-1.1c0.2-1.1,0.4-2.2,0.4-3.4C75.1,296.2,75.3,296.2,75.5,296.3z"/>
				<path fill="#FFE2B1" d="M70.5,307.6c-2.3,2.5-5.2,4-8.5,4c-3.2,0-6.2-1.5-8.5-4c-1.2-1.3-2.2-2.8-2.9-4.5      c-0.1-0.3-0.3-0.6-0.4-1c-0.7-1.8-1.1-3.8-1.2-5.9c0,0,0,0,0,0c0-0.3,0-0.6,0-0.9c0-0.1,0-0.2,0-0.2c1.9-5.1,3.3-6.9,4.7-7      c1.8-0.1,3.6,2.2,8,2.7s7.5,0.3,8.6-0.3s1.7-1.6,2.4,0c0.4,0.9,1.1,2.3,2.3,3.7c0,0.4,0,0.8,0,1.2c0,0.3,0,0.6,0,0.9      c0,0,0,0,0,0c-0.1,1.2-0.2,2.3-0.4,3.4c-0.1,0.4-0.2,0.7-0.3,1.1c-0.2,0.6-0.3,1.1-0.5,1.6c-0.1,0.3-0.2,0.5-0.3,0.8      C72.6,304.8,71.7,306.3,70.5,307.6z"/>
				<path fill="#FFD59E" d="M50.2,302.1c0.1,0.3,0.2,0.6,0.4,1c-1.2,0.4-2.6-0.8-3.3-2.7c-0.6-1.9-0.2-3.7,1-4.1      c0.2-0.1,0.5-0.1,0.7,0C49.1,298.3,49.5,300.3,50.2,302.1z"/>
			</g>
			<path fill="#1C3A4D" d="M63.6,320.2c0-0.9-0.7-1.6-1.6-1.6c-0.9,0-1.6,0.7-1.6,1.6c0,0.7,0.5,1.3,1.1,1.5     c-0.2,2.5-0.5,3.5-0.5,3.5s0.5,1.2,0.9,1.2s0.9-1.2,0.9-1.2s-0.3-1-0.5-3.4C63.1,321.6,63.6,320.9,63.6,320.2z"/>
			<g>
				<path fill="#33678E" d="M57.8,327v7.7h1.6V328c0-0.1-0.1-0.3-0.2-0.3C58.8,327.5,58.3,327.2,57.8,327z"/>
				<path fill="#33678E" d="M55.1,325.5v9.1h1.8v-7.9c0-0.2-0.1-0.3-0.2-0.4C56.2,326.1,55.6,325.8,55.1,325.5z"/>
				<path fill="#33678E" d="M52.7,323.9v10.8h1.4v-9.6c0-0.1-0.1-0.2-0.2-0.3C53.6,324.5,53.1,324.2,52.7,323.9z"/>
				<path fill="#33678E" d="M49.6,321.3c-0.3-0.2-0.4-0.4-0.5-0.6v13.9h2.9v-11.2c0-0.1-0.1-0.3-0.2-0.3      C50.9,322.4,50.1,321.7,49.6,321.3z"/>
				<path fill="#33678E" d="M46,318v16.7h2.4v-16.7c0-0.2-0.1-0.3-0.3-0.4c-0.5-0.1-1.2,0-1.8,0C46.1,317.6,46,317.8,46,318z"/>
				<path fill="#33678E" d="M44.6,314.5L44.6,314.5c-0.3,0.2-0.6,0.4-0.9,0.6c-0.1,0.1-0.2,0.3-0.2,0.4v19.1h1.7v-17      C44.5,317.5,44.5,316.9,44.6,314.5z"/>
				<path fill="#33678E" d="M39.9,319.8v14.8h2.9v-18.8c-1.1,1-1.9,1.9-2.5,2.7C40,319,39.9,319.4,39.9,319.8z"/>
			</g>
			<g>
				<path fill="#FFD59E" d="M70.5,307.6v1.6h-0.1c0,0-2.4,3.2-3.4,4.1c-1,0.9-5,4.2-5,4.2h-0.1c0,0-3.9-3.3-5-4.2      c-1-0.9-3.4-4.1-3.4-4.1v-1.6c2.3,2.5,5.2,4,8.5,4C65.2,311.5,68.2,310.1,70.5,307.6z"/>
				<path fill="#FFC98C" d="M60.5,311.4c-0.2,0-0.5-0.1-0.7-0.1c-0.1,0-0.3-0.1-0.4-0.1c-0.2-0.1-0.4-0.1-0.7-0.2      c-0.1,0-0.3-0.1-0.4-0.2c-0.2-0.1-0.4-0.2-0.6-0.3c-0.1-0.1-0.3-0.1-0.4-0.2c-0.2-0.1-0.4-0.2-0.6-0.3c-0.1-0.1-0.3-0.1-0.4-0.2      c-0.2-0.1-0.4-0.3-0.6-0.4c-0.1-0.1-0.2-0.2-0.3-0.2c-0.3-0.2-0.6-0.5-0.9-0.7c0.1,0.1,0.2,0.3,0.3,0.4c2.3,2.5,5.2,4,8.5,4      c2,0,4-0.6,5.7-1.6c0.8-1,1.5-2,1.5-2h0.1v-1.6c-2.3,2.5-5.2,4-8.5,4c-0.4,0-0.8,0-1.1-0.1C60.7,311.5,60.6,311.4,60.5,311.4z"/>
			</g>
			<g>
				<circle fill="#009015" cx="78.6" cy="329.2" r="13.2"/>
				<path fill="#FFFFFF" d="M84.9,327.4h-4.4v-4.4c0-0.3-0.3-0.6-0.6-0.6h-2.6c-0.3,0-0.6,0.3-0.6,0.6v4.4h-4.4      c-0.3,0-0.6,0.3-0.6,0.6v2.6c0,0.3,0.3,0.6,0.6,0.6h4.4v4.4c0,0.3,0.3,0.6,0.6,0.6h2.6c0.3,0,0.6-0.3,0.6-0.6v-4.4h4.4      c0.3,0,0.6-0.3,0.6-0.6v-2.6C85.5,327.6,85.2,327.4,84.9,327.4z"/>
			</g>
		</g>
	</g>
	<g>
		<rect y="372" fill="none" width="124" height="124"/>
		<g>
			<circle fill="#F00822" cx="62" cy="434" r="48.3"/>
			<defs>
				<filter id="Adobe_OpacityMaskFilter_7_" filterUnits="userSpaceOnUse" x="20.7" y="392.7" width="82.5" height="82.5">
					<feColorMatrix type="matrix" values="1 0 0 0 0  0 1 0 0 0  0 0 1 0 0  0 0 0 1 0"/>
				</filter>
			</defs>
			<mask maskUnits="userSpaceOnUse" x="20.7" y="392.7" width="82.5" height="82.5" id="SVGID_19_">
				<g filter="url(#Adobe_OpacityMaskFilter_7_)">
					<linearGradient id="SVGID_20_" gradientUnits="userSpaceOnUse" x1="49.3741" y1="475.5975" x2="103.4991" y2="421.4725">
						<stop offset="0" style="stop-color:#000000"/>
						<stop offset="2.000000e-02" style="stop-color:#FFFFFF"/>
						<stop offset="0.98" style="stop-color:#FFFFFF"/>
						<stop offset="1" style="stop-color:#000000"/>
					</linearGradient>
					<path fill="url(#SVGID_20_)" d="M100,418l-10.9-10.9l-54.5,53.8l11,11c5,2.2,10.5,3.4,16.3,3.4c22.8,0,41.4-18.5,41.3-41.3       C103.2,428.3,102.1,422.9,100,418z"/>
				</g>
			</mask>
			<radialGradient id="SVGID_21_" cx="62.0004" cy="433.9998" r="41.2672" gradientUnits="userSpaceOnUse">
				<stop offset="0.87" style="stop-color:#080600;stop-opacity:0.13"/>
				<stop offset="0.9693" style="stop-color:#030200;stop-opacity:3.073072e-02"/>
				<stop offset="1" style="stop-color:#000000;stop-opacity:0"/>
			</radialGradient>
			<path mask="url(#SVGID_19_)" fill="url(#SVGID_21_)" d="M103.3,434c0.1,22.8-18.5,41.3-41.3,41.3S20.7,456.8,20.7,434     s18.5-41.2,41.3-41.3C84.7,392.6,103.1,411,103.3,434z"/>
		</g>
		<g>
			<rect x="34.3" y="417.3" fill="#BFC5C6" width="55.4" height="4.6"/>
			<g>
				<path fill="#D0D7D8" d="M87.2,461.7c1.4,0,2.5-1.1,2.5-2.5v-37.4H62v39.8H87.2z"/>
				<path fill="#F5F1ED" d="M34.3,459.2c0,1.4,1.1,2.5,2.5,2.5H62v-39.8H34.3V459.2z"/>
			</g>
			<g>
				<g>
					<path fill="#086EAA" d="M89.7,408.8c0-1.4-1.1-2.5-2.5-2.5H62v11h27.7V408.8z"/>
					<path fill="#152137" d="M36.8,406.3c-1.4,0-2.5,1.1-2.5,2.5v8.5H62v-11H36.8z"/>
				</g>
				<path fill="#FFC107" d="M71.1,414.9H52.9c-1.7,0-3.1-1.4-3.1-3.1l0,0c0-1.7,1.4-3.1,3.1-3.1h18.3c1.7,0,3.1,1.4,3.1,3.1l0,0      C74.2,413.5,72.8,414.9,71.1,414.9z"/>
			</g>
			<g>
				<path fill="#0B68B6" d="M52.9,435.5L52.9,435.5l-3.6,1.7l-0.7-3.2l4.9-2.3h3.6v18.5h-4.2V435.5z"/>
				<path fill="#0B68B6" d="M64.6,447c0.5,0.1,1,0.1,1.9,0c1.3-0.1,2.6-0.5,3.6-1.1c1.2-0.8,2-2,2.3-3.4l-0.1,0      c-0.8,0.9-2,1.3-3.7,1.3c-3.1,0-5.8-2.2-5.8-5.8c0-3.6,2.9-6.7,7-6.7c4.8,0,7,3.6,7,8c0,3.8-1.2,6.7-3.2,8.5      c-1.8,1.6-4.2,2.5-7.1,2.6c-0.7,0.1-1.5,0-2,0V447z M67.2,437.7c0,1.6,0.9,3,2.6,3c1.2,0,2-0.6,2.4-1.2c0.1-0.3,0.2-0.5,0.2-1.1      c0-2-0.7-3.9-2.7-3.9C68.2,434.5,67.2,435.8,67.2,437.7z"/>
			</g>
		</g>
	</g>
	<g>
		<rect x="124" y="372" fill="none" width="124" height="124"/>
		<g>
			<circle fill="#0094EF" cx="186" cy="434" r="48.3"/>
			<defs>
				<filter id="Adobe_OpacityMaskFilter_8_" filterUnits="userSpaceOnUse" x="144.7" y="392.7" width="82.5" height="82.5">
					<feColorMatrix type="matrix" values="1 0 0 0 0  0 1 0 0 0  0 0 1 0 0  0 0 0 1 0"/>
				</filter>
			</defs>
			<mask maskUnits="userSpaceOnUse" x="144.7" y="392.7" width="82.5" height="82.5" id="SVGID_22_">
				<g filter="url(#Adobe_OpacityMaskFilter_8_)">
					<linearGradient id="SVGID_23_" gradientUnits="userSpaceOnUse" x1="172.4435" y1="471.5185" x2="223.536" y2="420.426">
						<stop offset="0" style="stop-color:#000000"/>
						<stop offset="2.000000e-02" style="stop-color:#FFFFFF"/>
						<stop offset="0.98" style="stop-color:#FFFFFF"/>
						<stop offset="1" style="stop-color:#000000"/>
					</linearGradient>
					<path fill="url(#SVGID_23_)" d="M216.9,413.8l-61.7,40.5l19.4,19.4c3.6,1,7.5,1.6,11.4,1.6c22.8,0,41.4-18.5,41.3-41.3       c0-4-0.6-7.9-1.7-11.5L216.9,413.8z"/>
				</g>
			</mask>
			<radialGradient id="SVGID_24_" cx="186.0004" cy="433.9998" r="41.2672" gradientUnits="userSpaceOnUse">
				<stop offset="0.87" style="stop-color:#080600;stop-opacity:0.13"/>
				<stop offset="0.9693" style="stop-color:#030200;stop-opacity:3.073072e-02"/>
				<stop offset="1" style="stop-color:#000000;stop-opacity:0"/>
			</radialGradient>
			<path mask="url(#SVGID_22_)" fill="url(#SVGID_24_)" d="M227.3,434c0.1,22.8-18.5,41.3-41.3,41.3s-41.3-18.5-41.3-41.3     s18.5-41.2,41.3-41.3C208.7,392.6,227.1,411,227.3,434z"/>
		</g>
		<g>
			<path fill="#FFFFF5" d="M213.8,455.6h-55.5c-2.2,0-4-1.8-4-4v-35.2c0-2.2,1.8-4,4-4h55.5c2.2,0,4,1.8,4,4v35.2     C217.8,453.8,216,455.6,213.8,455.6z"/>
			<rect x="154.2" y="418.3" fill="#0D2038" width="63.5" height="7.6"/>
			<g>
				<rect x="158" y="430.2" fill="#F4F3E1" width="31.2" height="2.3"/>
				<rect x="158" y="435.9" fill="#F4F3E1" width="31.2" height="2.3"/>
				<rect x="158" y="441.6" fill="#F4F3E1" width="31.2" height="2.3"/>
				<rect x="158" y="447.3" fill="#F4F3E1" width="31.2" height="2.3"/>
			</g>
			<circle fill="#FFC107" cx="204.4" cy="439" r="9.1"/>
		</g>
	</g>
	<g>
		<rect x="124" y="248" fill="none" width="124" height="124"/>
		<g>
			<g>
				<circle fill="#0094EF" cx="186" cy="310" r="48.3"/>
				<defs>
					<filter id="Adobe_OpacityMaskFilter_9_" filterUnits="userSpaceOnUse" x="144.7" y="268.7" width="82.5" height="82.5">
						<feColorMatrix type="matrix" values="1 0 0 0 0  0 1 0 0 0  0 0 1 0 0  0 0 0 1 0"/>
					</filter>
				</defs>
				<mask maskUnits="userSpaceOnUse" x="144.7" y="268.7" width="82.5" height="82.5" id="SVGID_25_">
					<g filter="url(#Adobe_OpacityMaskFilter_9_)">
						<linearGradient id="SVGID_26_" gradientUnits="userSpaceOnUse" x1="171.5372" y1="341.9321" x2="215.9074" y2="297.562">
							<stop offset="0" style="stop-color:#000000"/>
							<stop offset="2.000000e-02" style="stop-color:#FFFFFF"/>
							<stop offset="0.98" style="stop-color:#FFFFFF"/>
							<stop offset="1" style="stop-color:#000000"/>
						</linearGradient>
						<path fill="url(#SVGID_26_)" d="M227.3,310c0-0.5,0-0.9,0-1.4L195.6,277l-32.9,56.4l17.4,17.4c1.9,0.3,3.9,0.4,5.9,0.4        C208.8,351.3,227.3,332.8,227.3,310z"/>
					</g>
				</mask>
				<radialGradient id="SVGID_27_" cx="186.0004" cy="309.9998" r="41.2672" gradientUnits="userSpaceOnUse">
					<stop offset="0.87" style="stop-color:#080600;stop-opacity:0.13"/>
					<stop offset="0.9693" style="stop-color:#030200;stop-opacity:3.073072e-02"/>
					<stop offset="1" style="stop-color:#000000;stop-opacity:0"/>
				</radialGradient>
				<path mask="url(#SVGID_25_)" fill="url(#SVGID_27_)" d="M227.3,310c0.1,22.8-18.5,41.3-41.3,41.3s-41.3-18.5-41.3-41.3      c0-22.8,18.5-41.2,41.3-41.3C208.7,268.6,227.1,287,227.3,310z"/>
			</g>
			<g>
				<g>
					<path fill="#B16458" d="M186,279.3c-1,0-2.1-0.3-3.2-0.8c-8.2-3.9-7.3-0.1-4.8,4.9c2.5,5.1,1.9,11.3-5,16.5       c-6.9,5.2-13,12.8-13,22.7c0,9.8,7,20.5,26,20.5s26-10.7,26-20.5c0-9.8-6.1-17.5-13-22.7c-6.9-5.2-7.5-11.5-5-16.5       c2.5-5.1,3.4-8.9-4.8-4.9C188.1,279,187,279.3,186,279.3z"/>
					<g>
						<g>
							<path fill="#00D340" d="M192.4,292.2h-12.7c-1.1,0-1.9-0.9-1.9-1.9c0-1.1,0.9-1.9,1.9-1.9h12.7c1.1,0,1.9,0.9,1.9,1.9         C194.3,291.3,193.4,292.2,192.4,292.2z"/>
						</g>
					</g>
				</g>
				<g>
					<circle fill="#00D340" cx="186" cy="319.8" r="15.5"/>
					<path fill="#FFFFFF" d="M184.5,329.8v-1.5c0-0.2-0.2-0.4-0.4-0.5c-1.4-0.1-2.7-0.5-3.6-0.9c-0.2-0.1-0.3-0.3-0.2-0.5l0.5-2.1       c0.1-0.3,0.4-0.4,0.7-0.3c1,0.5,2.3,0.9,3.8,0.9c1.5,0,2.5-0.6,2.5-1.6c0-1-0.8-1.6-2.7-2.2c-2.8-0.9-4.6-2.2-4.6-4.7       c0-2.2,1.5-3.9,4-4.5c0.2,0,0.4-0.2,0.4-0.5v-1.6c0-0.2,0.2-0.5,0.5-0.5h1.5c0.2,0,0.5,0.2,0.5,0.5v1.4c0,0.2,0.2,0.4,0.4,0.5       c1.3,0.1,2.2,0.3,2.9,0.6c0.2,0.1,0.3,0.3,0.3,0.6l-0.5,2c0,0.3-0.4,0.4-0.6,0.3c-0.7-0.3-1.7-0.7-3.2-0.7       c-1.7,0-2.2,0.7-2.2,1.5c0,0.9,0.9,1.4,3.1,2.2c3.1,1.1,4.3,2.5,4.3,4.8c0,2.2-1.5,4.1-4.2,4.7c-0.2,0-0.4,0.2-0.4,0.5v1.7       c0,0.2-0.2,0.5-0.5,0.5h-1.5C184.7,330.3,184.5,330,184.5,329.8z"/>
				</g>
				<path opacity="0.29" d="M182.8,278.5c-8.2-3.9-7.3-0.1-4.8,4.9c0.8,1.6,1.2,3.2,1.3,5c-0.9,0.2-1.5,1-1.5,1.9      c0,0.8,0.5,1.5,1.1,1.8c-0.8,2.7-2.6,5.4-5.9,7.9c-6.9,5.2-13,12.8-13,22.7c0,9.8,7,20.5,26,20.5v-63.8      C185,279.3,183.9,279,182.8,278.5z"/>
			</g>
		</g>
	</g>
	<g>
		<rect x="248" y="248" fill="none" width="124" height="124"/>
		<g>
			<defs>
				<filter id="Adobe_OpacityMaskFilter_10_" filterUnits="userSpaceOnUse" x="263.2" y="273.8" width="93.6" height="50.5">
					<feFlood style="flood-color:white;flood-opacity:1" result="back"/>
					<feBlend in="SourceGraphic" in2="back" mode="normal"/>
				</filter>
			</defs>
			<mask maskUnits="userSpaceOnUse" x="263.2" y="273.8" width="93.6" height="50.5" id="SVGID_28_">
				<g filter="url(#Adobe_OpacityMaskFilter_10_)">
					<path d="M322.5,368.2c-4,0-10.4-1.2-17.6-6.6c-4.9-3.7-9.6-7.7-13.9-12c-4.3-4.3-8.3-9-12-13.9c-5.4-7.2-6.6-13.5-6.6-17.6       c0-3.4,1.3-6.7,3.8-9.1l8.5-8.5c0.5-0.5,1.3-0.8,2-0.8c1,0,2,0.6,2.5,1.5l8.7,15.8c0.6,1.1,0.4,2.5-0.5,3.4l-4.4,4.4       c-2.6,2.6,1.2,7.5,8.3,14.6c3.2,3.2,9.2,9.1,12.7,9.1c0.7,0,1.3-0.3,1.9-0.9l4.4-4.4c0.5-0.5,1.3-0.8,2-0.8       c0.5,0,1,0.1,1.4,0.4l15.8,8.7c0.8,0.4,1.3,1.2,1.4,2.1c0.1,0.9-0.2,1.8-0.8,2.4l-8.5,8.5c-2.4,2.4-5.7,3.8-9,3.8H322.5z"/>
				</g>
			</mask>
			<path mask="url(#SVGID_28_)" fill="#FEC601" d="M310,303.5l-1-0.6l-45.8-26.6v48h93.6v-48L311,302.9L310,303.5z M356.6,273.8     h-93.1l-0.3,0.2l46.8,27.2l46.8-27.2v0L356.6,273.8z"/>
			<path fill="#00A13E" d="M322.7,344.5c-0.3-0.2-0.7-0.1-1,0.1l-4.4,4.4c-4.1,4.1-10.4-1.3-17.4-8.3c-7-7-12.4-13.3-8.3-17.4     l4.4-4.4c0.3-0.3,0.3-0.7,0.1-1l-8.7-15.8c-0.3-0.5-0.9-0.6-1.3-0.2l-8.5,8.5c-2,2-3.2,4.8-3.2,7.7c0,3.9,1.2,9.7,6.2,16.4     c4.3,5.8,8.5,10.4,11.8,13.7c3.3,3.3,7.9,7.5,13.7,11.8c6.7,5,12.5,6.2,16.4,6.2c2.9,0,5.6-1.1,7.7-3.2l8.5-8.5     c0.4-0.4,0.3-1.1-0.2-1.3L322.7,344.5z"/>
		</g>
	</g>
</g>
<g id="Layer_2">
</g>
</svg>