<?xml version="1.0" encoding="UTF-8"?>
<!-- Generator: Adobe Illustrator 21.0.0, SVG Export Plug-In . SVG Version: 6.00 Build 0)  -->
<svg version="1.1" id="Layer_1" xmlns="http://www.w3.org/2000/svg" xmlns:xlink="http://www.w3.org/1999/xlink" x="0px" y="0px" width="180px" height="200px" viewBox="0 0 180 200" style="enable-background:new 0 0 180 200;" xml:space="preserve">
<style type="text/css">
	.st0{fill:none;}
	.st1{fill:#373745;}
	.st2{fill:#FFFFFF;}
</style>
<g>
	<rect y="30" class="st0" width="30" height="30"/>
	<path class="st1" d="M16.4,45l7.3-7.3c0.4-0.4,0.4-1,0-1.4s-1-0.4-1.4,0L15,43.6l-7.3-7.3c-0.4-0.4-1-0.4-1.4,0s-0.4,1,0,1.4   l7.3,7.3l-7.3,7.3c-0.4,0.4-0.4,1,0,1.4C6.5,53.9,6.7,54,7,54s0.5-0.1,0.7-0.3l7.3-7.3l7.3,7.3c0.2,0.2,0.5,0.3,0.7,0.3   s0.5-0.1,0.7-0.3c0.4-0.4,0.4-1,0-1.4L16.4,45z"/>
</g>
<g>
	<rect x="30" y="30" class="st0" width="30" height="30"/>
	<path class="st1" d="M51.6,41.5h-0.3v-3.3c0-3.5-2.8-6.3-6.3-6.3s-6.3,2.8-6.3,6.3v3.3h-0.3c-1.7,0-3,1.4-3,3V55c0,1.7,1.4,3,3,3   h13.2c1.7,0,3-1.4,3-3V44.6C54.6,42.9,53.3,41.5,51.6,41.5z M40.7,38.2c0-2.4,1.9-4.3,4.3-4.3s4.3,1.9,4.3,4.3v3.3h-8.5L40.7,38.2   L40.7,38.2z M52.6,55c0,0.6-0.5,1-1,1H38.4c-0.6,0-1-0.5-1-1V44.6c0-0.6,0.5-1,1-1h13.2c0.6,0,1,0.5,1,1C52.6,44.6,52.6,55,52.6,55   z M46,49.1v-1.2c0-0.6-0.4-1-1-1s-1,0.4-1,1v1.2c-0.7,0.4-1.2,1.1-1.2,2c0,1.2,1,2.2,2.2,2.2s2.2-1,2.2-2.2   C47.2,50.2,46.7,49.4,46,49.1z"/>
</g>
<g>
	<rect x="140" y="120" class="st0" width="20" height="20"/>
	<path class="st1" d="M154.4,127.7h-0.2v-2.2c0-2.3-1.9-4.2-4.2-4.2s-4.2,1.9-4.2,4.2v2.2h-0.2c-1.1,0-2,0.9-2,2v7c0,1.1,0.9,2,2,2   h8.8c1.1,0,2-0.9,2-2v-7C156.4,128.6,155.5,127.7,154.4,127.7z M147.2,125.4c0-1.6,1.3-2.8,2.8-2.8s2.8,1.3,2.8,2.8v2.2h-5.7   L147.2,125.4L147.2,125.4z M155.1,136.7c0,0.4-0.3,0.7-0.7,0.7h-8.8c-0.4,0-0.7-0.3-0.7-0.7v-7c0-0.4,0.3-0.7,0.7-0.7h8.8   c0.4,0,0.7,0.3,0.7,0.7V136.7z M150.7,132.7v-0.8c0-0.4-0.3-0.7-0.7-0.7s-0.7,0.3-0.7,0.7v0.8c-0.5,0.2-0.8,0.7-0.8,1.3   c0,0.8,0.7,1.5,1.5,1.5s1.5-0.7,1.5-1.5C151.5,133.5,151.2,133,150.7,132.7z"/>
</g>
<g>
	<rect x="120" y="120" class="st0" width="20" height="20"/>
	<path class="st1" d="M130.9,130l4.9-4.9c0.3-0.3,0.3-0.7,0-0.9c-0.3-0.3-0.7-0.3-0.9,0l-4.9,4.9l-4.9-4.9c-0.3-0.3-0.7-0.3-0.9,0   c-0.3,0.3-0.3,0.7,0,0.9l4.9,4.9l-4.9,4.9c-0.3,0.3-0.3,0.7,0,0.9c0.1,0.1,0.3,0.2,0.5,0.2s0.3-0.1,0.5-0.2l4.9-4.9l4.9,4.9   c0.1,0.1,0.3,0.2,0.5,0.2s0.3-0.1,0.5-0.2c0.3-0.3,0.3-0.7,0-0.9L130.9,130z"/>
</g>
<g>
	<rect x="150" class="st0" width="30" height="30"/>
	<path class="st1" d="M179.1,10.9c-0.1-0.1-0.1-0.2-0.2-0.3l-3-3c-0.4-0.4-1-0.4-1.4,0s-0.4,1,0,1.4l1.3,1.3h-8.1c-0.6,0-1,0.4-1,1   s0.4,1,1,1h8.1l-1.3,1.3c-0.4,0.4-0.4,1,0,1.4c0.2,0.2,0.5,0.3,0.7,0.3s0.5-0.1,0.7-0.3l3-3c0.1-0.1,0.2-0.2,0.2-0.3   C179.2,11.4,179.2,11.1,179.1,10.9z M171.2,22.3h-5.4V10.6c0-0.8-0.7-1.8-1.5-2.2L158,5.3h13.2v3.9h2V4.8c0-0.8-0.7-1.5-1.5-1.5   h-16.3c-0.8,0-1.5,0.7-1.5,1.5v11.5v6.6c0,0.8,0.7,1.8,1.5,2.2l8.9,4.4c0.2,0.1,0.5,0.2,0.7,0.2c0.5,0,0.8-0.3,0.8-0.9v-4.3h5.9   c0.8,0,1.5-0.7,1.5-1.5v-9.6h-2L171.2,22.3L171.2,22.3z M163.8,26.9l-7.6-3.7c-0.2-0.1-0.4-0.3-0.4-0.4v-6.6V6.5l7.6,3.7   c0.2,0.1,0.4,0.3,0.4,0.4V26.9z"/>
</g>
<g>
	<rect x="100" y="120" class="st0" width="20" height="20"/>
	<path class="st1" d="M119.4,127.2c0-0.1-0.1-0.2-0.1-0.2l-2-2c-0.3-0.3-0.7-0.3-0.9,0c-0.3,0.3-0.3,0.7,0,0.9l0.9,0.9h-5.4   c-0.4,0-0.7,0.3-0.7,0.7s0.3,0.7,0.7,0.7h5.4l-0.9,0.9c-0.3,0.3-0.3,0.7,0,0.9c0.1,0.1,0.3,0.2,0.5,0.2s0.3-0.1,0.5-0.2l2-2   c0.1-0.1,0.1-0.1,0.1-0.2C119.5,127.6,119.5,127.4,119.4,127.2z M114.1,134.9h-3.6v-7.8c0-0.6-0.4-1.2-1-1.5l-4.2-2.1h8.8v2.6h1.3   v-3c0-0.6-0.4-1-1-1h-10.9c-0.6,0-1,0.4-1,1v7.6v4.4c0,0.6,0.4,1.2,1,1.5l6,2.9c0.2,0.1,0.3,0.1,0.4,0.1c0.3,0,0.6-0.2,0.6-0.6   v-2.9h3.9c0.6,0,1-0.4,1-1v-6.4h-1.3C114.1,128.7,114.1,134.9,114.1,134.9z M109.2,137.9l-5-2.5c-0.1,0-0.2-0.2-0.3-0.3v-4.4v-6.5   l5,2.5c0.1,0,0.2,0.2,0.3,0.3V137.9z"/>
</g>
<g>
	<rect x="120" class="st0" width="30" height="30"/>
	<path class="st1" d="M143.3,7.8h-16.5c-2.2,0-4,1.8-4,4v12c0,2.2,1.8,4,4,4h16.5c2.2,0,4-1.8,4-4v-12   C147.3,9.6,145.5,7.8,143.3,7.8z M145.3,23.8c0,1.1-0.9,2-2,2h-16.5c-1.1,0-2-0.9-2-2v-5.5c0.6,0.3,1.3,0.6,2,0.6h16.5   c0.7,0,1.4-0.2,2-0.6V23.8z M145.3,14.8c0,1.1-0.9,2-2,2h-16.5c-1.1,0-2-0.9-2-2v-3c0-1.1,0.9-2,2-2h16.5c1.1,0,2,0.9,2,2V14.8z    M133.9,5.3h2.2c1,0,1.9,0.8,1.9,1.9h2c0-2.1-1.7-3.9-3.9-3.9h-2.2c-2.1,0-3.9,1.7-3.9,3.9h2C132.1,6.1,132.9,5.3,133.9,5.3z    M128.8,19.7c-0.6,0-1,0.4-1,1v0.9c0,0.6,0.4,1,1,1s1-0.4,1-1v-0.9C129.8,20.1,129.4,19.7,128.8,19.7z M141.3,19.7   c-0.6,0-1,0.4-1,1v0.9c0,0.6,0.4,1,1,1s1-0.4,1-1v-0.9C142.3,20.1,141.8,19.7,141.3,19.7z"/>
</g>
<g>
	<rect x="80" y="120" class="st0" width="20" height="20"/>
	<path class="st1" d="M95.5,125.2h-11c-1.5,0-2.7,1.2-2.7,2.7v8c0,1.5,1.2,2.7,2.7,2.7h11c1.5,0,2.7-1.2,2.7-2.7v-8   C98.2,126.4,97,125.2,95.5,125.2z M96.8,135.9c0,0.7-0.6,1.3-1.3,1.3h-11c-0.7,0-1.3-0.6-1.3-1.3v-3.7c0.4,0.2,0.8,0.4,1.3,0.4h11   c0.5,0,0.9-0.1,1.3-0.4V135.9z M96.8,129.9c0,0.7-0.6,1.3-1.3,1.3h-11c-0.7,0-1.3-0.6-1.3-1.3v-2c0-0.7,0.6-1.3,1.3-1.3h11   c0.7,0,1.3,0.6,1.3,1.3V129.9z M89.3,123.5h1.5c0.7,0,1.2,0.6,1.2,1.2h1.3c0-1.4-1.2-2.6-2.6-2.6h-1.5c-1.4,0-2.6,1.2-2.6,2.6H88   C88,124.1,88.6,123.5,89.3,123.5z M85.9,133.1c-0.4,0-0.7,0.3-0.7,0.7v0.6c0,0.4,0.3,0.7,0.7,0.7c0.4,0,0.7-0.3,0.7-0.7v-0.6   C86.5,133.4,86.2,133.1,85.9,133.1z M94.2,133.1c-0.4,0-0.7,0.3-0.7,0.7v0.6c0,0.4,0.3,0.7,0.7,0.7c0.4,0,0.7-0.3,0.7-0.7v-0.6   C94.8,133.4,94.5,133.1,94.2,133.1z"/>
</g>
<g>
	<rect x="90" class="st0" width="30" height="30"/>
	<path class="st1" d="M105,25.8c-4.1,0-7.9-0.8-10.4-2.3L93.8,23l0.4-0.8c0.1-0.2,0.2-0.3,0.3-0.5c1.3-2.4,3.5-3.3,5.5-4.2   c0.4-0.2,0.8-0.4,1.2-0.5c0.4-0.2,0.5-0.3,0.5-0.4s-0.3-0.6-0.7-0.9c-1.5-1.3-2.3-3.1-2.3-5.1C98.7,7,101.5,4,105,4   s6.3,2.9,6.3,6.6c0,1.9-0.8,3.8-2.2,5c-0.4,0.3-0.8,0.8-0.8,0.9c0,0,0.1,0.2,0.5,0.3c0.4,0.2,0.8,0.4,1.3,0.5   c2.1,0.9,4.2,1.8,5.5,4.2c0.1,0.2,0.2,0.3,0.3,0.5l0.4,0.8l-0.8,0.5C112.8,25,109,25.8,105,25.8z M96.4,22.3c2.2,1,5.3,1.6,8.6,1.6   s6.3-0.6,8.6-1.6c-1-1.5-2.6-2.1-4.3-2.9c-0.4-0.2-0.9-0.4-1.3-0.6c-1.3-0.6-1.6-1.4-1.7-2c-0.1-1.4,1.2-2.5,1.5-2.7   c0.9-0.8,1.5-2.1,1.5-3.5c0-2.5-1.9-4.6-4.3-4.6s-4.3,2-4.3,4.6c0,1.4,0.6,2.6,1.6,3.5c0.2,0.1,1.6,1.2,1.4,2.6   c-0.1,0.6-0.4,1.4-1.7,2c-0.4,0.2-0.9,0.4-1.3,0.6C98.9,20.1,97.4,20.8,96.4,22.3z"/>
</g>
<g>
	<rect x="60" y="120" class="st0" width="20" height="20"/>
	<path class="st1" d="M70,137.2c-2.7,0-5.3-0.6-7-1.5l-0.5-0.3l0.3-0.6c0.1-0.1,0.1-0.2,0.2-0.3c0.9-1.6,2.3-2.2,3.7-2.8   c0.3-0.1,0.6-0.2,0.8-0.4c0.2-0.1,0.3-0.2,0.3-0.2c0-0.1-0.2-0.4-0.5-0.6c-1-0.9-1.5-2.1-1.5-3.4c0-2.4,1.9-4.4,4.2-4.4   s4.2,2,4.2,4.4c0,1.3-0.5,2.5-1.5,3.3c-0.3,0.2-0.5,0.5-0.5,0.6c0,0,0.1,0.1,0.3,0.2c0.3,0.1,0.6,0.2,0.8,0.4   c1.4,0.6,2.8,1.2,3.7,2.8c0.1,0.1,0.1,0.2,0.2,0.3l0.3,0.6l-0.5,0.3C75.3,136.7,72.7,137.2,70,137.2z M64.3,134.8   c1.5,0.7,3.5,1,5.7,1s4.2-0.4,5.7-1c-0.7-1-1.7-1.4-2.9-1.9c-0.3-0.1-0.6-0.2-0.9-0.4c-0.8-0.4-1.1-0.9-1.1-1.3   c-0.1-0.9,0.8-1.7,1-1.8c0.6-0.5,1-1.4,1-2.3c0-1.7-1.3-3-2.9-3s-2.9,1.4-2.9,3c0,0.9,0.4,1.8,1,2.3c0.1,0.1,1,0.8,1,1.7   c0,0.4-0.3,0.9-1.1,1.3c-0.3,0.1-0.6,0.3-0.9,0.4C66,133.4,65,133.8,64.3,134.8z"/>
</g>
<g>
	<rect x="60" class="st0" width="30" height="30"/>
	<path class="st1" d="M67,10h15.9c0.6,0,1-0.4,1-1s-0.4-1-1-1H67c-0.6,0-1,0.4-1,1S66.4,10,67,10z M82.9,14H67c-0.6,0-1,0.4-1,1   s0.4,1,1,1h15.9c0.6,0,1-0.4,1-1S83.5,14,82.9,14z M82.9,20H67c-0.6,0-1,0.4-1,1s0.4,1,1,1h15.9c0.6,0,1-0.4,1-1S83.5,20,82.9,20z"/>
</g>
<g>
	<rect x="40" y="120" class="st0" width="20" height="20"/>
	<path class="st1" d="M44.7,126.7h10.6c0.4,0,0.7-0.3,0.7-0.7s-0.3-0.7-0.7-0.7H44.7c-0.4,0-0.7,0.3-0.7,0.7S44.3,126.7,44.7,126.7z    M55.3,129.3H44.7c-0.4,0-0.7,0.3-0.7,0.7s0.3,0.7,0.7,0.7h10.6c0.4,0,0.7-0.3,0.7-0.7S55.6,129.3,55.3,129.3z M55.3,133.3H44.7   c-0.4,0-0.7,0.3-0.7,0.7s0.3,0.7,0.7,0.7h10.6c0.4,0,0.7-0.3,0.7-0.7S55.6,133.3,55.3,133.3z"/>
</g>
<g>
	<rect x="30" class="st0" width="30" height="30"/>
	<path class="st1" d="M43.4,19l6.9-4l-6.9-4v3H35v2h8.3v3H43.4z M51.9,3H38.1v2h13.8c0.6,0,1,0.5,1,1v18c0,0.6-0.5,1-1,1H38.1v2   h13.8c1.7,0,3-1.3,3-3V6C55,4.3,53.6,3,51.9,3z"/>
</g>
<g>
	<rect x="20" y="120" class="st0" width="20" height="20"/>
	<path class="st1" d="M28.9,132.7l4.6-2.7l-4.6-2.7v2h-5.5v1.3h5.5V132.7z M34.7,122h-9.2v1.3h9.2c0.4,0,0.7,0.3,0.7,0.7v12   c0,0.4-0.3,0.7-0.7,0.7h-9.2v1.3h9.2c1.1,0,2-0.9,2-2v-12C36.7,122.9,35.8,122,34.7,122z"/>
</g>
<g>
	<rect class="st0" width="30" height="30"/>
	<path class="st1" d="M15,13.8c-2.2,0-4.1,1.8-4.1,4.1S12.7,22,15,22s4.1-1.8,4.1-4.1S17.2,13.8,15,13.8z M15,8.1   c-5.5,0-10.2,3.5-12,8.4h2.2c1.7-3.8,5.6-6.4,9.8-6.4s8.1,2.5,9.8,6.4H27C25.2,11.6,20.5,8.1,15,8.1z"/>
</g>
<g>
	<rect y="120" class="st0" width="20" height="20"/>
	<path class="st1" d="M10,129.2c-1.5,0-2.7,1.2-2.7,2.7s1.2,2.7,2.7,2.7s2.7-1.2,2.7-2.7S11.5,129.2,10,129.2z M10,125.4   c-3.7,0-6.8,2.3-8,5.6h1.4c1.2-2.6,3.7-4.3,6.6-4.3c2.8,0,5.4,1.7,6.6,4.3H18C16.8,127.7,13.7,125.4,10,125.4z"/>
</g>
<g>
	<rect y="90" class="st0" width="30" height="30"/>
	<path class="st2" d="M16.4,105l7.3-7.3c0.4-0.4,0.4-1,0-1.4c-0.4-0.4-1-0.4-1.4,0l-7.3,7.3l-7.3-7.3c-0.4-0.4-1-0.4-1.4,0   c-0.4,0.4-0.4,1,0,1.4l7.3,7.3l-7.3,7.3c-0.4,0.4-0.4,1,0,1.4c0.2,0.2,0.4,0.3,0.7,0.3s0.5-0.1,0.7-0.3l7.3-7.3l7.3,7.3   c0.2,0.2,0.5,0.3,0.7,0.3s0.5-0.1,0.7-0.3c0.4-0.4,0.4-1,0-1.4L16.4,105z"/>
</g>
<g>
	<rect x="30" y="90" class="st0" width="30" height="30"/>
	<path class="st2" d="M51.6,101.5h-0.3v-3.3c0-3.5-2.8-6.3-6.3-6.3s-6.3,2.8-6.3,6.3v3.3h-0.3c-1.7,0-3,1.4-3,3V115   c0,1.7,1.4,3,3,3h13.2c1.7,0,3-1.4,3-3v-10.4C54.6,102.9,53.3,101.5,51.6,101.5z M40.7,98.2c0-2.4,1.9-4.3,4.3-4.3   s4.3,1.9,4.3,4.3v3.3h-8.5L40.7,98.2L40.7,98.2z M52.6,115c0,0.6-0.5,1-1,1H38.4c-0.6,0-1-0.5-1-1v-10.4c0-0.6,0.5-1,1-1h13.2   c0.6,0,1,0.5,1,1C52.6,104.6,52.6,115,52.6,115z M46,109.1v-1.2c0-0.6-0.4-1-1-1s-1,0.4-1,1v1.2c-0.7,0.4-1.2,1.1-1.2,2   c0,1.2,1,2.2,2.2,2.2s2.2-1,2.2-2.2C47.2,110.2,46.7,109.4,46,109.1z"/>
</g>
<g>
	<rect x="150" y="60" class="st0" width="30" height="30"/>
	<path class="st2" d="M179.1,70.9c-0.1-0.1-0.1-0.2-0.2-0.3l-3-3c-0.4-0.4-1-0.4-1.4,0s-0.4,1,0,1.4l1.3,1.3h-8.1c-0.6,0-1,0.4-1,1   c0,0.6,0.4,1,1,1h8.1l-1.3,1.3c-0.4,0.4-0.4,1,0,1.4c0.2,0.2,0.5,0.3,0.7,0.3s0.5-0.1,0.7-0.3l3-3c0.1-0.1,0.2-0.2,0.2-0.3   C179.2,71.4,179.2,71.1,179.1,70.9z M171.2,82.3h-5.4V70.6c0-0.8-0.7-1.8-1.5-2.2l-6.3-3.1h13.2v3.9h2v-4.4c0-0.8-0.7-1.5-1.5-1.5   h-16.3c-0.8,0-1.5,0.7-1.5,1.5v11.5v6.6c0,0.8,0.7,1.8,1.5,2.2l8.9,4.4c0.2,0.1,0.5,0.2,0.7,0.2c0.5,0,0.8-0.3,0.8-0.9v-4.3h5.9   c0.8,0,1.5-0.7,1.5-1.5v-9.6h-2L171.2,82.3L171.2,82.3z M163.8,86.9l-7.6-3.7c-0.2-0.1-0.4-0.3-0.4-0.4v-6.6v-9.7l7.6,3.7   c0.2,0.1,0.4,0.3,0.4,0.4V86.9z"/>
</g>
<g>
	<rect x="120" y="60" class="st0" width="30" height="30"/>
	<path class="st2" d="M143.3,67.8h-16.5c-2.2,0-4,1.8-4,4v12c0,2.2,1.8,4,4,4h16.5c2.2,0,4-1.8,4-4v-12   C147.3,69.6,145.5,67.8,143.3,67.8z M145.3,83.8c0,1.1-0.9,2-2,2h-16.5c-1.1,0-2-0.9-2-2v-5.5c0.6,0.3,1.3,0.6,2,0.6h16.5   c0.7,0,1.4-0.2,2-0.6V83.8z M145.3,74.8c0,1.1-0.9,2-2,2h-16.5c-1.1,0-2-0.9-2-2v-3c0-1.1,0.9-2,2-2h16.5c1.1,0,2,0.9,2,2V74.8z    M133.9,65.3h2.2c1,0,1.9,0.8,1.9,1.9h2c0-2.1-1.7-3.9-3.9-3.9h-2.2c-2.1,0-3.9,1.7-3.9,3.9h2C132.1,66.1,132.9,65.3,133.9,65.3z    M128.8,79.7c-0.6,0-1,0.4-1,1v0.9c0,0.6,0.4,1,1,1s1-0.4,1-1v-0.9C129.8,80.1,129.4,79.7,128.8,79.7z M141.3,79.7   c-0.6,0-1,0.4-1,1v0.9c0,0.6,0.4,1,1,1s1-0.4,1-1v-0.9C142.3,80.1,141.8,79.7,141.3,79.7z"/>
</g>
<g>
	<rect x="90" y="60" class="st0" width="30" height="30"/>
	<path class="st2" d="M105,85.8c-4.1,0-7.9-0.8-10.4-2.3L93.8,83l0.4-0.8c0.1-0.2,0.2-0.3,0.3-0.5c1.3-2.4,3.5-3.3,5.5-4.2   c0.4-0.2,0.8-0.4,1.2-0.5c0.4-0.2,0.5-0.3,0.5-0.4s-0.3-0.6-0.7-0.9c-1.5-1.3-2.3-3.1-2.3-5.1c0-3.6,2.8-6.6,6.3-6.6   s6.3,2.9,6.3,6.6c0,1.9-0.8,3.8-2.2,5c-0.4,0.3-0.8,0.8-0.8,0.9c0,0,0.1,0.2,0.5,0.3c0.4,0.2,0.8,0.4,1.3,0.5   c2.1,0.9,4.2,1.8,5.5,4.2c0.1,0.2,0.2,0.3,0.3,0.5l0.4,0.8l-0.8,0.5C112.8,85,109,85.8,105,85.8z M96.4,82.3   c2.2,1,5.3,1.6,8.6,1.6s6.3-0.6,8.6-1.6c-1-1.5-2.6-2.1-4.3-2.9c-0.4-0.2-0.9-0.4-1.3-0.6c-1.3-0.6-1.6-1.4-1.7-2   c-0.1-1.4,1.2-2.5,1.5-2.7c0.9-0.8,1.5-2.1,1.5-3.5c0-2.5-1.9-4.6-4.3-4.6s-4.3,2-4.3,4.6c0,1.4,0.6,2.6,1.6,3.5   c0.2,0.1,1.6,1.2,1.4,2.6c-0.1,0.6-0.4,1.4-1.7,2c-0.4,0.2-0.9,0.4-1.3,0.6C98.9,80.1,97.4,80.8,96.4,82.3z"/>
</g>
<g>
	<rect x="60" y="60" class="st0" width="30" height="30"/>
	<path class="st2" d="M67,70h15.9c0.6,0,1-0.4,1-1s-0.4-1-1-1H67c-0.6,0-1,0.4-1,1S66.4,70,67,70z M82.9,74H67c-0.6,0-1,0.4-1,1   s0.4,1,1,1h15.9c0.6,0,1-0.4,1-1S83.5,74,82.9,74z M82.9,80H67c-0.6,0-1,0.4-1,1s0.4,1,1,1h15.9c0.6,0,1-0.4,1-1S83.5,80,82.9,80z   "/>
</g>
<g>
	<rect x="30" y="60" class="st0" width="30" height="30"/>
	<path class="st2" d="M43.4,79l6.9-4l-6.9-4v3H35v2h8.3v3H43.4z M51.9,63H38.1v2h13.8c0.6,0,1,0.5,1,1v18c0,0.6-0.5,1-1,1H38.1v2   h13.8c1.7,0,3-1.3,3-3V66C55,64.3,53.6,63,51.9,63z"/>
</g>
<g>
	<rect y="60" class="st0" width="30" height="30"/>
	<path class="st2" d="M15,73.8c-2.2,0-4.1,1.8-4.1,4.1c0,2.3,1.8,4.1,4.1,4.1s4.1-1.8,4.1-4.1C19.1,75.6,17.2,73.8,15,73.8z    M15,68.1c-5.5,0-10.2,3.5-12,8.4h2.2c1.7-3.8,5.6-6.4,9.8-6.4s8.1,2.5,9.8,6.4H27C25.2,71.6,20.5,68.1,15,68.1z"/>
</g>
<g>
	<rect x="140" y="140" class="st0" width="20" height="20"/>
	<path class="st2" d="M154.4,147.7h-0.2v-2.2c0-2.3-1.9-4.2-4.2-4.2s-4.2,1.9-4.2,4.2v2.2h-0.2c-1.1,0-2,0.9-2,2v7c0,1.1,0.9,2,2,2   h8.8c1.1,0,2-0.9,2-2v-7C156.4,148.6,155.5,147.7,154.4,147.7z M147.2,145.4c0-1.6,1.3-2.8,2.8-2.8s2.8,1.3,2.8,2.8v2.2h-5.7   L147.2,145.4L147.2,145.4z M155.1,156.7c0,0.4-0.3,0.7-0.7,0.7h-8.8c-0.4,0-0.7-0.3-0.7-0.7v-7c0-0.4,0.3-0.7,0.7-0.7h8.8   c0.4,0,0.7,0.3,0.7,0.7V156.7z M150.7,152.7v-0.8c0-0.4-0.3-0.7-0.7-0.7s-0.7,0.3-0.7,0.7v0.8c-0.5,0.2-0.8,0.7-0.8,1.3   c0,0.8,0.7,1.5,1.5,1.5s1.5-0.7,1.5-1.5C151.5,153.5,151.2,153,150.7,152.7z"/>
</g>
<g>
	<rect x="120" y="140" class="st0" width="20" height="20"/>
	<path class="st2" d="M130.9,150l4.9-4.9c0.3-0.3,0.3-0.7,0-0.9c-0.3-0.3-0.7-0.3-0.9,0l-4.9,4.9l-4.9-4.9c-0.3-0.3-0.7-0.3-0.9,0   c-0.3,0.3-0.3,0.7,0,0.9l4.9,4.9l-4.9,4.9c-0.3,0.3-0.3,0.7,0,0.9c0.1,0.1,0.3,0.2,0.5,0.2s0.3-0.1,0.5-0.2l4.9-4.9l4.9,4.9   c0.1,0.1,0.3,0.2,0.5,0.2s0.3-0.1,0.5-0.2c0.3-0.3,0.3-0.7,0-0.9L130.9,150z"/>
</g>
<g>
	<rect x="100" y="140" class="st0" width="20" height="20"/>
	<path class="st2" d="M119.4,147.2c0-0.1-0.1-0.2-0.1-0.2l-2-2c-0.3-0.3-0.7-0.3-0.9,0c-0.3,0.3-0.3,0.7,0,0.9l0.9,0.9h-5.4   c-0.4,0-0.7,0.3-0.7,0.7s0.3,0.7,0.7,0.7h5.4l-0.9,0.9c-0.3,0.3-0.3,0.7,0,0.9c0.1,0.1,0.3,0.2,0.5,0.2s0.3-0.1,0.5-0.2l2-2   c0.1-0.1,0.1-0.1,0.1-0.2C119.5,147.6,119.5,147.4,119.4,147.2z M114.1,154.9h-3.6v-7.8c0-0.6-0.4-1.2-1-1.5l-4.2-2.1h8.8v2.6h1.3   v-3c0-0.6-0.4-1-1-1h-10.9c-0.6,0-1,0.4-1,1v7.6v4.4c0,0.6,0.4,1.2,1,1.5l6,2.9c0.2,0.1,0.3,0.1,0.4,0.1c0.3,0,0.6-0.2,0.6-0.6   v-2.9h3.9c0.6,0,1-0.4,1-1v-6.4h-1.3C114.1,148.7,114.1,154.9,114.1,154.9z M109.2,157.9l-5-2.5c-0.1,0-0.2-0.2-0.3-0.3v-4.4v-6.5   l5,2.5c0.1,0,0.2,0.2,0.3,0.3V157.9z"/>
</g>
<g>
	<rect x="80" y="140" class="st0" width="20" height="20"/>
	<path class="st2" d="M95.5,145.2h-11c-1.5,0-2.7,1.2-2.7,2.7v8c0,1.5,1.2,2.7,2.7,2.7h11c1.5,0,2.7-1.2,2.7-2.7v-8   C98.2,146.4,97,145.2,95.5,145.2z M96.8,155.9c0,0.7-0.6,1.3-1.3,1.3h-11c-0.7,0-1.3-0.6-1.3-1.3v-3.7c0.4,0.2,0.8,0.4,1.3,0.4h11   c0.5,0,0.9-0.1,1.3-0.4V155.9z M96.8,149.9c0,0.7-0.6,1.3-1.3,1.3h-11c-0.7,0-1.3-0.6-1.3-1.3v-2c0-0.7,0.6-1.3,1.3-1.3h11   c0.7,0,1.3,0.6,1.3,1.3V149.9z M89.3,143.5h1.5c0.7,0,1.2,0.6,1.2,1.2h1.3c0-1.4-1.2-2.6-2.6-2.6h-1.5c-1.4,0-2.6,1.2-2.6,2.6H88   C88,144.1,88.6,143.5,89.3,143.5z M85.9,153.1c-0.4,0-0.7,0.3-0.7,0.7v0.6c0,0.4,0.3,0.7,0.7,0.7c0.4,0,0.7-0.3,0.7-0.7v-0.6   C86.5,153.4,86.2,153.1,85.9,153.1z M94.2,153.1c-0.4,0-0.7,0.3-0.7,0.7v0.6c0,0.4,0.3,0.7,0.7,0.7c0.4,0,0.7-0.3,0.7-0.7v-0.6   C94.8,153.4,94.5,153.1,94.2,153.1z"/>
</g>
<g>
	<rect x="60" y="140" class="st0" width="20" height="20"/>
	<path class="st2" d="M70,157.2c-2.7,0-5.3-0.6-7-1.5l-0.5-0.3l0.3-0.6c0.1-0.1,0.1-0.2,0.2-0.3c0.9-1.6,2.3-2.2,3.7-2.8   c0.3-0.1,0.6-0.2,0.8-0.4c0.2-0.1,0.3-0.2,0.3-0.2c0-0.1-0.2-0.4-0.5-0.6c-1-0.9-1.5-2.1-1.5-3.4c0-2.4,1.9-4.4,4.2-4.4   s4.2,2,4.2,4.4c0,1.3-0.5,2.5-1.5,3.3c-0.3,0.2-0.5,0.5-0.5,0.6c0,0,0.1,0.1,0.3,0.2c0.3,0.1,0.6,0.2,0.8,0.4   c1.4,0.6,2.8,1.2,3.7,2.8c0.1,0.1,0.1,0.2,0.2,0.3l0.3,0.6l-0.5,0.3C75.3,156.7,72.7,157.2,70,157.2z M64.3,154.8   c1.5,0.7,3.5,1,5.7,1s4.2-0.4,5.7-1c-0.7-1-1.7-1.4-2.9-1.9c-0.3-0.1-0.6-0.2-0.9-0.4c-0.8-0.4-1.1-0.9-1.1-1.3   c-0.1-0.9,0.8-1.7,1-1.8c0.6-0.5,1-1.4,1-2.3c0-1.7-1.3-3-2.9-3s-2.9,1.4-2.9,3c0,0.9,0.4,1.8,1,2.3c0.1,0.1,1,0.8,1,1.7   c0,0.4-0.3,0.9-1.1,1.3c-0.3,0.1-0.6,0.3-0.9,0.4C66,153.4,65,153.8,64.3,154.8z"/>
</g>
<g>
	<rect x="40" y="140" class="st0" width="20" height="20"/>
	<path class="st2" d="M44.7,146.7h10.6c0.4,0,0.7-0.3,0.7-0.7s-0.3-0.7-0.7-0.7H44.7c-0.4,0-0.7,0.3-0.7,0.7S44.3,146.7,44.7,146.7   z M55.3,149.3H44.7c-0.4,0-0.7,0.3-0.7,0.7s0.3,0.7,0.7,0.7h10.6c0.4,0,0.7-0.3,0.7-0.7S55.6,149.3,55.3,149.3z M55.3,153.3H44.7   c-0.4,0-0.7,0.3-0.7,0.7s0.3,0.7,0.7,0.7h10.6c0.4,0,0.7-0.3,0.7-0.7S55.6,153.3,55.3,153.3z"/>
</g>
<g>
	<rect x="20" y="140" class="st0" width="20" height="20"/>
	<path class="st2" d="M28.9,152.7l4.6-2.7l-4.6-2.7v2h-5.5v1.3h5.5V152.7z M34.7,142h-9.2v1.3h9.2c0.4,0,0.7,0.3,0.7,0.7v12   c0,0.4-0.3,0.7-0.7,0.7h-9.2v1.3h9.2c1.1,0,2-0.9,2-2v-12C36.7,142.9,35.8,142,34.7,142z"/>
</g>
<g>
	<rect y="140" class="st0" width="20" height="20"/>
	<path class="st2" d="M10,149.2c-1.5,0-2.7,1.2-2.7,2.7s1.2,2.7,2.7,2.7s2.7-1.2,2.7-2.7S11.5,149.2,10,149.2z M10,145.4   c-3.7,0-6.8,2.3-8,5.6h1.4c1.2-2.6,3.7-4.3,6.6-4.3c2.8,0,5.4,1.7,6.6,4.3H18C16.8,147.7,13.7,145.4,10,145.4z"/>
</g>
</svg>